<?xml version="1.0" encoding="utf-8"?>
<!-- Generator: Adobe Illustrator 23.0.6, SVG Export Plug-In . SVG Version: 6.00 Build 0)  -->
<svg version="1.1" xmlns="http://www.w3.org/2000/svg" xmlns:xlink="http://www.w3.org/1999/xlink" x="0px" y="0px"
	 viewBox="0 0 500 500" style="enable-background:new 0 0 500 500;" xml:space="preserve">
<style type="text/css">
	.st0{fill:#F5F5F5;}
	.st1{fill:#E0E0E0;}
	.st2{fill:#FFFFFF;}
	.st3{fill:none;stroke:#FBFBFB;stroke-width:0.25;stroke-miterlimit:10;}
	.st4{fill:#EBEBEB;}
	.st5{display:none;}
	.st6{display:inline;fill:#EBEBEB;}
	.st7{fill:#263238;}
	.st8{fill:#455A64;}
	.st9{fill:#D24524;}
	.st10{fill:#B78876;}
	.st11{fill:#AA6550;}
	.st12{fill:#FFBE9D;}
	.st13{fill:#323242;}
	.st14{opacity:0.4;}
	.st15{opacity:0.6;}
	.st16{fill:#EB996E;}
	.st17{fill:#E8505B;}
</style>
<g id="Background_Complete">
	<g>
		<g>
			<g>
				<g>
					<path class="st0" d="M48.7,303.3c0,0,9-3,13.3,17.8c4.3,20.8,5,32.3,5,32.3s1.4,4.5,4.7,2.7c3.3-1.8,8.8-7.9,13-5.4
						c4.3,2.6,4.4,8.2,1.4,15.5c-3,7.3-8.8,23.7-9.4,25.2c-0.5,1.5-0.3,3.9,2.2,3c2.4-0.9,17.9-10.8,22.2-3.2
						c4.3,7.6-7.3,26.7-8.5,28.9c-1.2,2.1-1,3.2-0.1,4.1c0.9,0.9,5.8-3,10.3-5.6c4.5-2.7,10.2-4.9,12.3-0.3s-1.1,20.4-22.9,41.7
						l-10.7,9.2l-13.4-4.5c-28.2-11.3-37.2-24.7-37-29.8c0.2-5.1,6.3-5.1,11.5-4.4c5.2,0.7,11.2,2.4,11.7,1.3
						c0.5-1.1,0.3-2.2-1.7-3.7c-1.9-1.5-20-14.7-18.9-23.4c1.1-8.7,19.2-5.4,21.7-5.5c2.6-0.1,1.9-2.5,0.9-3.6
						c-1.1-1.2-12.7-14-18.3-19.7c-5.5-5.7-7.6-10.9-4.6-14.9c2.9-3.9,10.3-0.3,14,0s3.3-4.3,3.3-4.3s-3.8-10.9-7.7-31.7
						c-3.9-20.9,5.8-21.5,5.8-21.5"/>
				</g>
			</g>
		</g>
		<g>
			<g>
				<g>
					<g>
						<path class="st1" d="M81.6,466.1c-2.9-15.3-7.2-36.4-12-59.7c-4.8-23.3-9.1-44.4-12.1-59.7c-1.5-7.6-2.7-13.8-3.6-18.1
							c-0.4-2.1-0.8-3.8-1-4.9c-0.1-0.5-0.2-1-0.3-1.3c-0.1-0.3-0.1-0.4-0.1-0.4s0,0.2,0.1,0.4c0.1,0.3,0.1,0.7,0.2,1.3
							c0.2,1.2,0.5,2.8,0.9,4.9c0.8,4.3,1.9,10.5,3.4,18.1c2.9,15.3,7.2,36.4,12,59.7c4.8,23.3,9.1,44.4,12.1,59.7"/>
					</g>
				</g>
			</g>
		</g>
		<g>
			<g>
				<g>
					<g>
						<path class="st1" d="M77.2,359.6c0,0-0.2,0.3-0.6,0.8c-0.4,0.5-0.9,1.4-1.5,2.4c-1.2,2-2.8,4.8-4.5,8
							c-1.7,3.1-3.2,5.9-4.3,8.1c-0.5,1-1,1.8-1.3,2.4c-0.3,0.6-0.5,0.9-0.4,0.9c0,0,0.2-0.3,0.6-0.8c0.4-0.5,0.9-1.4,1.5-2.4
							c1.2-2,2.8-4.9,4.5-8c1.7-3.1,3.2-5.9,4.4-8c0.5-1,1-1.8,1.3-2.4C77.1,360,77.3,359.6,77.2,359.6z"/>
					</g>
				</g>
			</g>
		</g>
		<g>
			<g>
				<g>
					<g>
						<path class="st1" d="M63.2,382c0.1-0.1-5.6-3.7-12.6-8c-7-4.3-12.8-7.7-12.9-7.5c-0.1,0.1,5.6,3.7,12.6,8
							C57.4,378.8,63.1,382.2,63.2,382z"/>
					</g>
				</g>
			</g>
		</g>
		<g>
			<g>
				<g>
					<g>
						<path class="st1" d="M72.2,417.5c0,0-0.3-0.1-1-0.3c-0.7-0.2-1.7-0.5-2.7-0.7c-2.3-0.6-5.5-1.5-9-2.6c-3.5-1.1-6.6-2.2-8.8-3
							c-1-0.4-1.9-0.7-2.7-1c-0.6-0.2-1-0.3-1-0.3c0,0,0.3,0.2,0.9,0.5c0.6,0.3,1.5,0.7,2.6,1.1c2.2,0.9,5.3,2,8.8,3.1
							c3.5,1.1,6.7,1.9,9,2.5c1.2,0.3,2.1,0.5,2.8,0.6C71.8,417.5,72.1,417.5,72.2,417.5z"/>
					</g>
				</g>
			</g>
		</g>
		<g>
			<g>
				<g>
					<g>
						<path class="st1" d="M89.3,400c0,0-0.3,0.2-0.7,0.6c-0.5,0.4-1.1,1-1.9,1.8c-1.6,1.5-3.8,3.7-6.2,6c-2.4,2.4-4.5,4.5-6.1,6.1
							c-0.8,0.8-1.4,1.4-1.8,1.9c-0.4,0.5-0.6,0.7-0.6,0.7c0,0,0.3-0.2,0.7-0.6c0.5-0.4,1.1-1,1.9-1.8c1.6-1.5,3.8-3.7,6.2-6
							c2.4-2.4,4.5-4.5,6.1-6.1c0.8-0.8,1.4-1.4,1.8-1.9C89.1,400.3,89.3,400,89.3,400z"/>
					</g>
				</g>
			</g>
		</g>
		<g>
			<g>
				<g>
					<g>
						<path class="st1" d="M101.2,430.3c0,0-0.4,0.3-0.9,0.8c-0.6,0.6-1.5,1.4-2.5,2.3c-2.1,1.9-4.9,4.7-8,7.7
							c-3.1,3-5.9,5.8-7.9,7.8c-0.9,1-1.7,1.8-2.3,2.4c-0.5,0.6-0.8,0.9-0.8,0.9c0,0,0.4-0.3,0.9-0.8c0.6-0.6,1.5-1.4,2.5-2.3
							c2.1-1.9,4.9-4.7,8-7.7c3.1-3,5.9-5.8,7.9-7.8c0.9-1,1.7-1.8,2.3-2.4C100.9,430.6,101.2,430.3,101.2,430.3z"/>
					</g>
				</g>
			</g>
		</g>
		<g>
			<g>
				<g>
					<g>
						<path class="st1" d="M79.2,451.5c0,0-0.4-0.2-1.2-0.4c-0.9-0.3-2-0.6-3.4-1.1c-2.9-0.9-6.9-2.2-11.3-3.7
							c-4.4-1.5-8.3-3-11.1-4c-1.4-0.5-2.5-0.9-3.4-1.3c-0.8-0.3-1.2-0.4-1.3-0.4c0,0,0.4,0.2,1.2,0.6c0.8,0.3,1.9,0.8,3.3,1.4
							c2.8,1.2,6.7,2.7,11.1,4.2c4.4,1.5,8.4,2.7,11.3,3.5c1.5,0.4,2.6,0.7,3.5,0.9C78.7,451.4,79.2,451.5,79.2,451.5z"/>
					</g>
				</g>
			</g>
		</g>
	</g>
	<g>
		<g>
			<g>
				<g>
					<g>
						<g>
							<g>
								<g>
									<rect x="364.7" y="63.6" class="st1" width="93.6" height="135.7"/>
								</g>
							</g>
						</g>
					</g>
				</g>
			</g>
		</g>
		<g>
			<g>
				<g>
					<g>
						<g>
							<g>
								<g>
									<rect x="360" y="63.6" class="st0" width="93.6" height="135.7"/>
								</g>
							</g>
						</g>
					</g>
				</g>
			</g>
		</g>
		<g>
			<g>
				<g>
					<g>
						<g>
							<g>
								<g>
									<g>
										<rect x="371.6" y="78.3" class="st2" width="70.4" height="106.3"/>
									</g>
								</g>
							</g>
						</g>
					</g>
				</g>
			</g>
			<g>
				<g>
					<g>
						<g>
							<g>
								<g>
									<g>
										<g>
											<path class="st1" d="M442,184.7c0,0,0-0.2,0-0.5c0-0.4,0-0.9,0-1.5c0-1.3,0-3.3,0-5.8c0-5.1,0-12.5-0.1-21.9
												c0-18.7-0.1-45.3-0.1-76.6l0.2,0.2c-21.5,0-45.3,0-70.4,0h0l0.3-0.3c0,40.1,0,77.1-0.1,106.3l-0.2-0.2
												c21.4,0,39,0.1,51.2,0.1c6.1,0,10.9,0,14.1,0.1c1.6,0,2.9,0,3.7,0C441.6,184.6,442,184.7,442,184.7s-0.4,0-1.2,0
												c-0.8,0-2.1,0-3.7,0c-3.3,0-8,0-14.1,0.1c-12.3,0-29.9,0.1-51.3,0.1l-0.2,0v-0.2c0-29.2,0-66.2-0.1-106.3l0-0.3h0.3h0
												c25,0,48.9,0,70.4,0h0.2l0,0.2c0,31.3-0.1,57.9-0.1,76.7c0,9.4,0,16.8-0.1,21.8c0,2.5,0,4.5,0,5.8c0,0.6,0,1.1,0,1.5
												C442,184.5,442,184.7,442,184.7z"/>
										</g>
									</g>
								</g>
							</g>
						</g>
					</g>
				</g>
			</g>
		</g>
		<g>
			<g>
				<g>
					<g>
						<g>
							<g>
								<g>
									<g>
										<path class="st1" d="M453.9,63.6c0.1,0-0.6,1-1.7,2.4c-1.1,1.5-2.6,3.4-4.4,5.6c-1.8,2.1-3.4,4-4.6,5.4
											c-1.2,1.3-2,2.1-2.1,2.1c-0.1,0,0.6-0.9,1.8-2.3c1.3-1.5,2.8-3.4,4.5-5.5c1.7-2.1,3.2-3.9,4.5-5.5
											C453.1,64.5,453.8,63.6,453.9,63.6z"/>
									</g>
								</g>
							</g>
						</g>
					</g>
				</g>
			</g>
		</g>
		<g>
			<g>
				<g>
					<g>
						<g>
							<g>
								<g>
									<g>
										<path class="st2" d="M442.4,184.3c3.5,5.6,7.6,10.7,12.3,15.3"/>
									</g>
								</g>
							</g>
						</g>
					</g>
				</g>
			</g>
			<g>
				<g>
					<g>
						<g>
							<g>
								<g>
									<g>
										<g>
											<path class="st1" d="M454.6,199.7c0,0-0.9-0.7-2.1-1.9c-1.3-1.3-2.9-3.1-4.6-5.2c-1.7-2.1-3.1-4.2-4.1-5.7
												c-1-1.5-1.5-2.5-1.4-2.5c0.1,0,0.7,0.9,1.7,2.3c1,1.4,2.5,3.4,4.2,5.5c1.7,2.1,3.3,4,4.5,5.3
												C453.9,198.8,454.7,199.6,454.6,199.7z"/>
										</g>
									</g>
								</g>
							</g>
						</g>
					</g>
				</g>
			</g>
		</g>
		<g>
			<g>
				<g>
					<g>
						<g>
							<g>
								<g>
									<g>
										<path class="st2" d="M360,199.2c4.1-5,8.2-10.1,12.3-15.1"/>
									</g>
								</g>
							</g>
						</g>
					</g>
				</g>
			</g>
			<g>
				<g>
					<g>
						<g>
							<g>
								<g>
									<g>
										<g>
											<path class="st1" d="M372.3,184.1c0.1,0.1-2.5,3.5-5.9,7.7c-3.4,4.2-6.2,7.5-6.3,7.4c-0.1-0.1,2.5-3.5,5.9-7.7
												C369.3,187.3,372.2,184,372.3,184.1z"/>
										</g>
									</g>
								</g>
							</g>
						</g>
					</g>
				</g>
			</g>
		</g>
		<g>
			<g>
				<g>
					<g>
						<g>
							<g>
								<g>
									<g>
										<path class="st1" d="M360,63.6c0.1-0.1,2.8,3.1,6,7.1c3.2,4,5.7,7.3,5.6,7.4c-0.1,0.1-2.8-3.1-6-7.1
											C362.4,67.1,359.9,63.7,360,63.6z"/>
									</g>
								</g>
							</g>
						</g>
					</g>
				</g>
			</g>
		</g>
		<g>
			<g>
				<g>
					<g>
						<g>
							<g>
								<g>
									<rect x="396.5" y="99.9" class="st1" width="23.6" height="66.9"/>
								</g>
							</g>
						</g>
					</g>
				</g>
			</g>
		</g>
	</g>
	<g>
		<g>
			<g>
				<g>
					<g>
						<g>
							<polygon class="st1" points="164.4,42 164.4,116.7 57,116.7 53.2,42.5 							"/>
						</g>
					</g>
				</g>
			</g>
		</g>
		<g>
			<g>
				<g>
					<g>
						<g>
							
								<rect x="69.8" y="25.8" transform="matrix(6.123234e-17 -1 1 6.123234e-17 27.3159 186.3909)" class="st2" width="74.1" height="107.4"/>
						</g>
					</g>
				</g>
			</g>
			<g>
				<g>
					<g>
						<g>
							<path class="st1" d="M161.1,117.1H52.6V42h108.4V117.1z M53.7,116.1H160V43H53.7V116.1z"/>
						</g>
					</g>
				</g>
			</g>
		</g>
		<g>
			<g>
				<g>
					<g>
						<g>
							<g>
								<rect x="64.8" y="51.7" class="st2" width="84.1" height="55.7"/>
							</g>
						</g>
					</g>
				</g>
			</g>
			<g>
				<g>
					<g>
						<g>
							<g>
								<g>
									<path class="st1" d="M148.9,51.7c0,0-0.1,0-0.4,0c-0.3,0-0.7,0-1.2,0c-1.1,0-2.6,0-4.6,0c-4,0-9.9,0-17.3,0.1
										c-14.8,0-35.8,0.1-60.6,0.1l0.2-0.2c0,17,0,35.9,0,55.7v0l-0.3-0.3c31.7,0,61,0,84.1,0.1l-0.2,0.2
										c0-16.9,0.1-30.8,0.1-40.5c0-4.8,0-8.6,0.1-11.2c0-1.3,0-2.3,0-2.9C148.9,52.1,148.9,51.7,148.9,51.7s0,0.3,0,1
										c0,0.7,0,1.6,0,2.9c0,2.6,0,6.3,0.1,11.2c0,9.7,0.1,23.6,0.1,40.6l0,0.2l-0.2,0c-23.1,0-52.4,0-84.1,0.1l-0.3,0v-0.3v0
										c0-19.8,0-38.7,0-55.7v-0.2l0.2,0c24.8,0,45.8,0.1,60.7,0.1c7.4,0,13.3,0.1,17.3,0.1c2,0,3.5,0,4.6,0c0.5,0,0.9,0,1.2,0
										C148.8,51.7,148.9,51.7,148.9,51.7z"/>
								</g>
							</g>
						</g>
					</g>
				</g>
			</g>
		</g>
		<g>
			<g>
				<g>
					<g>
						<g>
							<g>
								<path class="st1" d="M53.2,42.3c0-0.1,0.7,0.4,1.8,1.2c1.1,0.8,2.6,1.9,4.2,3.2c1.6,1.3,3,2.5,4,3.4c1,0.9,1.6,1.5,1.5,1.6
									c-0.1,0.1-2.7-2-5.9-4.6C55.7,44.5,53.1,42.4,53.2,42.3z"/>
							</g>
						</g>
					</g>
				</g>
			</g>
		</g>
		<g>
			<g>
				<g>
					<g>
						<g>
							<g>
								<path class="st1" d="M160.6,42.5c0.1,0.1-2.4,2.3-5.7,4.8c-3.2,2.5-5.9,4.5-6,4.4c-0.1-0.1,2.4-2.3,5.7-4.8
									C157.8,44.3,160.5,42.4,160.6,42.5z"/>
							</g>
						</g>
					</g>
				</g>
			</g>
		</g>
		<g>
			<g>
				<g>
					<g>
						<g>
							<g>
								<path class="st2" d="M160.5,116.6c-4-3.2-8-6.5-12-9.7"/>
							</g>
						</g>
					</g>
				</g>
			</g>
			<g>
				<g>
					<g>
						<g>
							<g>
								<g>
									<path class="st1" d="M148.5,106.9c0.1-0.1,2.8,2,6.2,4.6c3.3,2.7,5.9,4.9,5.8,5.1s-2.8-2-6.2-4.6
										C151,109.3,148.4,107,148.5,106.9z"/>
								</g>
							</g>
						</g>
					</g>
				</g>
			</g>
		</g>
		<g>
			<g>
				<g>
					<g>
						<g>
							<g>
								<path class="st1" d="M53.2,116.6c-0.1-0.1,2.4-2.2,5.6-4.8c3.2-2.5,5.8-4.5,5.9-4.3c0.1,0.1-2.4,2.2-5.6,4.8
									C55.9,114.8,53.2,116.7,53.2,116.6z"/>
							</g>
						</g>
					</g>
				</g>
			</g>
		</g>
		<g>
			<g>
				<g>
					<g>
						<g>
							
								<rect x="99" y="51.9" transform="matrix(6.123234e-17 -1 1 6.123234e-17 29.9713 186.7052)" class="st1" width="18.6" height="52.9"/>
						</g>
					</g>
				</g>
			</g>
		</g>
	</g>
	<g>
		<g>
			<g>
				<g>
					<path class="st4" d="M415.7,290.2c-15.1,14.3-38.9,13.6-53.3-1.5c-14.3-15.1-13.7-39,1.4-53.3c15.1-14.3,38.9-13.6,53.3,1.5
						C431.4,252.1,430.8,275.9,415.7,290.2z"/>
				</g>
			</g>
			<g>
				<g>
					<path class="st0" d="M409.5,283.7c-11.5,10.9-29.7,10.4-40.6-1.1c-10.9-11.5-10.5-29.7,1-40.6c11.5-10.9,29.7-10.4,40.6,1.1
						C421.5,254.6,421,272.8,409.5,283.7z"/>
				</g>
			</g>
			<g>
				<g>
					<g>
						<path class="st1" d="M410.2,283.1c-0.1-0.1,0.7-1.1,2-2.9c1.3-1.9,3-4.7,4.1-8.5c0.6-1.9,1-4,1.2-6.4c0.1-2.3,0.1-4.8-0.4-7.4
							c-0.2-1.3-0.6-2.6-1-3.9c-0.4-1.3-1-2.6-1.6-3.8c-0.7-1.2-1.4-2.5-2.3-3.7c-0.9-1.2-1.8-2.3-2.9-3.4c-1.1-1-2.2-2-3.4-2.9
							c-1.2-0.9-2.4-1.6-3.7-2.2c-1.3-0.7-2.6-1.2-3.8-1.6c-1.3-0.4-2.6-0.8-3.9-1c-2.6-0.5-5.1-0.5-7.4-0.4
							c-2.3,0.2-4.5,0.6-6.3,1.2c-3.8,1.2-6.6,2.9-8.4,4.2c-1.8,1.3-2.8,2.1-2.9,2c-0.1-0.1,0.7-1.1,2.4-2.7c1.7-1.5,4.5-3.5,8.5-5
							c2-0.7,4.2-1.3,6.7-1.6c2.5-0.3,5.1-0.3,7.9,0.2c1.4,0.2,2.8,0.5,4.2,1c1.4,0.4,2.8,1,4.2,1.7c1.4,0.7,2.7,1.5,4,2.4
							c1.3,0.9,2.5,2,3.7,3.1c1.1,1.1,2.2,2.4,3.1,3.6c0.9,1.3,1.7,2.6,2.4,4c0.7,1.4,1.3,2.8,1.7,4.1c0.5,1.4,0.8,2.8,1,4.2
							c0.5,2.8,0.5,5.4,0.3,7.9c-0.3,2.5-0.8,4.7-1.5,6.7c-1.4,4-3.4,6.8-4.9,8.5C411.3,282.4,410.3,283.2,410.2,283.1z"/>
					</g>
				</g>
			</g>
		</g>
		<g>
			<g>
				<g>
					<g>
						<path class="st1" d="M379.5,277l-3.6,3.5l-3.1-3.2l3.5-3.4c-2.9-3.4-4.9-7.4-5.2-10.5l5.6-2.1c0.4,2.8,1.8,5.9,3.8,8.4
							l5.3-5.2c-2.6-4.4-5.3-9.5-0.7-14c3.4-3.3,8.7-3.7,14.2,0.8l3.6-3.5l3.1,3.2l-3.5,3.4c2.2,2.6,3.8,5.5,4.4,8.4l-5.5,2.2
							c-0.7-2.5-1.7-4.7-3.1-6.5l-5.4,5.3c2.6,4.4,5.3,9.4,0.7,13.8C390.3,281.1,385.1,281.4,379.5,277z M390.6,260l4.5-4.4
							c-2-1.3-3.6-1.1-4.7-0.1C389.3,256.6,389.6,258.2,390.6,260z M388.2,273c1.1-1.1,0.8-2.6,0-4.5l-4.4,4.3
							C385.7,274.2,387.2,274,388.2,273z"/>
					</g>
				</g>
			</g>
		</g>
	</g>
	<g>
		<g>
			<g>
				<g>
					<path class="st4" d="M267.9,335c7.1,20.6-3.8,43.2-24.5,50.3c-20.7,7.2-43.2-3.8-50.4-24.4c-7.1-20.6,3.8-43.2,24.5-50.3
						C238.2,303.4,260.7,314.4,267.9,335z"/>
				</g>
			</g>
			<g>
				<g>
					<path class="st0" d="M259,338.1c5.4,15.7-2.9,32.9-18.7,38.3c-15.8,5.5-32.9-2.9-38.4-18.6c-5.4-15.7,2.9-32.9,18.7-38.3
						C236.3,314,253.5,322.4,259,338.1z"/>
				</g>
			</g>
			<g>
				<g>
					<g>
						<path class="st1" d="M258.6,337.2c-0.2,0.1-0.7-1.1-1.9-3.2c-1.2-2-3.2-4.9-6.3-7.6c-1.6-1.4-3.4-2.7-5.6-3.9
							c-2.2-1.1-4.6-2.1-7.2-2.8c-1.3-0.3-2.7-0.6-4.1-0.7c-1.4-0.1-2.9-0.2-4.4-0.1c-1.5,0.1-3,0.3-4.5,0.6c-1.5,0.3-3,0.8-4.5,1.3
							c-1.5,0.6-2.9,1.2-4.2,2c-1.3,0.8-2.6,1.6-3.7,2.6c-1.2,0.9-2.2,1.9-3.2,3c-1,1-1.8,2.1-2.6,3.3c-1.6,2.2-2.7,4.6-3.6,6.9
							c-0.8,2.3-1.3,4.5-1.6,6.6c-0.5,4.1-0.1,7.6,0.4,9.9c0.4,2.3,0.8,3.6,0.7,3.7c-0.1,0.1-0.8-1.1-1.5-3.4
							c-0.7-2.3-1.4-5.8-1.1-10.3c0.2-2.2,0.6-4.6,1.4-7.1c0.8-2.5,2-5,3.6-7.5c0.8-1.2,1.7-2.4,2.8-3.6c1-1.1,2.2-2.2,3.4-3.3
							c1.2-1,2.6-2,4-2.8c1.4-0.8,3-1.6,4.5-2.2c1.6-0.6,3.2-1.1,4.8-1.4c1.6-0.3,3.2-0.5,4.8-0.6c1.6-0.1,3.2,0,4.7,0.2
							c1.5,0.2,3,0.4,4.4,0.8c2.8,0.7,5.4,1.9,7.7,3.2c2.2,1.3,4.2,2.8,5.7,4.3c3.2,3.1,5,6.2,6,8.4
							C258.5,335.8,258.8,337.1,258.6,337.2z"/>
					</g>
				</g>
			</g>
		</g>
		<g>
			<g>
				<g>
					<g>
						<path class="st1" d="M239.6,363.9l1.8,4.9l-4.4,1.6l-1.7-4.8c-4.5,1.3-9.2,1.5-12.3,0.5l0.5-6.3c2.8,0.8,6.4,0.9,9.7,0
							l-2.7-7.4c-5.3,0.6-11.4,0.9-13.7-5.4c-1.7-4.7,0.2-9.9,6.9-13.3l-1.8-4.9l4.4-1.6l1.7,4.8c3.4-0.9,6.9-1.2,9.9-0.6l-0.2,6.2
							c-2.7-0.5-5.3-0.4-7.6,0.2l2.7,7.5c5.3-0.6,11.3-0.9,13.6,5.3C248.1,355.3,246.2,360.5,239.6,363.9z M228.1,345.9l-2.3-6.3
							c-2.1,1.4-2.6,3-2.1,4.5C224.3,345.7,225.9,346,228.1,345.9z M239.5,353.8c-0.6-1.5-2.1-1.9-4.3-1.9l2.2,6.1
							C239.5,356.7,240,355.2,239.5,353.8z"/>
					</g>
				</g>
			</g>
		</g>
	</g>
	<g>
		<g>
			<g>
				<g>
					<path class="st4" d="M117.4,237.1c0.2,18.3-14.5,33.4-32.8,33.6C66.2,271,51.1,256.3,50.9,238c-0.2-18.3,14.5-33.4,32.8-33.6
						C102.1,204.2,117.1,218.8,117.4,237.1z"/>
				</g>
			</g>
			<g>
				<g>
					<path class="st0" d="M109.5,237.2c0.2,14-11,25.4-25,25.6c-14,0.2-25.5-11-25.7-25c-0.2-14,11-25.4,25-25.6
						C97.8,212.1,109.3,223.3,109.5,237.2z"/>
				</g>
			</g>
			<g>
				<g>
					<g>
						<path class="st1" d="M109.4,236.4c-0.2,0-0.3-1.1-0.7-3c-0.4-1.9-1.2-4.7-3-7.7c-0.9-1.5-2-3.1-3.4-4.6
							c-1.4-1.5-3.1-2.9-5-4.1c-1-0.6-2-1.2-3.1-1.6c-1.1-0.5-2.2-0.9-3.5-1.2c-1.2-0.3-2.4-0.6-3.7-0.7c-1.3-0.1-2.6-0.2-3.9-0.1
							c-1.3,0.1-2.6,0.2-3.9,0.5c-1.3,0.2-2.5,0.6-3.7,1c-1.2,0.4-2.3,1-3.3,1.5c-1.1,0.6-2,1.2-3,1.9c-1.8,1.4-3.4,2.9-4.7,4.5
							c-1.3,1.6-2.2,3.3-3,4.8c-1.5,3.2-2.1,6-2.3,8c-0.3,2-0.3,3.1-0.4,3.1c-0.1,0-0.3-1.1-0.3-3.1c0-2,0.4-5,1.8-8.5
							c0.7-1.7,1.7-3.5,3-5.3c1.3-1.7,2.9-3.5,4.8-5c1-0.8,2-1.5,3.1-2.1c1.1-0.6,2.3-1.2,3.6-1.7c1.3-0.5,2.6-0.9,3.9-1.2
							c1.4-0.3,2.8-0.5,4.2-0.5c1.4-0.1,2.8,0,4.2,0.2c1.4,0.2,2.7,0.4,4,0.8c1.3,0.4,2.5,0.8,3.7,1.4c1.2,0.5,2.3,1.2,3.3,1.8
							c2.1,1.3,3.8,2.9,5.3,4.5c1.4,1.6,2.6,3.3,3.4,5c1.7,3.3,2.3,6.2,2.6,8.3C109.7,235.3,109.5,236.4,109.4,236.4z"/>
					</g>
				</g>
			</g>
		</g>
		<g>
			<g>
				<g>
					<g>
						<path class="st1" d="M87.2,252.6l0.1,4.4l-3.9,0.1l-0.1-4.3c-3.9-0.1-7.7-1.3-9.9-2.9l2-4.9c2,1.4,4.9,2.4,7.7,2.6l-0.2-6.6
							c-4.4-0.9-9.3-2.3-9.5-7.9c-0.1-4.2,2.8-7.8,9-8.7l-0.1-4.4l3.9-0.1l0.1,4.3c3,0.2,5.9,0.9,8.1,2.2l-1.8,4.9
							c-2-1.1-4.1-1.7-6.1-1.9l0.2,6.7c4.4,0.9,9.2,2.2,9.4,7.8C96.2,248.1,93.3,251.7,87.2,252.6z M82.8,235.3l-0.2-5.6
							c-2.1,0.5-2.9,1.7-2.8,3C79.8,234.1,81,234.8,82.8,235.3z M89.8,244.6c0-1.4-1.2-2.1-2.9-2.6l0.1,5.4
							C89,247,89.8,245.9,89.8,244.6z"/>
					</g>
				</g>
			</g>
		</g>
	</g>
	<g>
		<g>
			<path class="st4" d="M274.8,93.9c2.4-4.2,3.7-9.1,3.7-14.3c0-16.1-12.9-29.2-28.8-29.2c-2.7,0-5.2,0.4-7.7,1.1
				c12.2,3.4,21.2,14.7,21.2,28.1c0,13.4-9,24.7-21.2,28.1c2.4,0.7,5,1.1,7.7,1.1c5.6,0,10.8-1.6,15.3-4.4l13.6,5.2L274.8,93.9z"/>
		</g>
	</g>
</g>
<g id="Background_Simple" class="st5">
	<path class="st6" d="M378.7,159.8c-30.5-3.8-61.8,11.9-91.5,4c-44.8-11.9-61.6-69.1-102.5-90.9c-29.7-15.8-68.5-9-94.2,12.7
		c-25.7,21.7-38.8,56-39,89.7c-0.3,33.6,12,69.8,28.8,99l0,0c21.5,34.6,53.2,62,90.8,77.5c47.5,19.7,103.2,25,151.5,16.7
		c34.2-5.9,67.7-20.2,92-45c24.3-24.7,38.4-60.6,32.5-94.8C441.2,194.6,413.2,164.1,378.7,159.8z"/>
</g>
<g id="Floor">
	<g>
		<g>
			<g>
				<path class="st7" d="M462.4,469.1c0,0.1-95.1,0.3-212.4,0.3c-117.3,0-212.4-0.1-212.4-0.3c0-0.1,95.1-0.3,212.4-0.3
					C367.3,468.8,462.4,468.9,462.4,469.1z"/>
			</g>
		</g>
	</g>
</g>
<g id="Character_1">
	<g>
		<g>
			<path class="st7" d="M152.1,437l0.8,24.9l6.3,19.5c0.5,1.4-0.4,2.9-1.8,3.3l0,0c-0.8,0.2-1.6,0-2.3-0.5
				c-4-3.4-18.6-16.1-18.6-17.9c0-2.1-2.6-26.2-2.6-26.2L152.1,437z"/>
		</g>
	</g>
	<g>
		<g>
			<path class="st1" d="M157.4,484.6l-21-20.1l0.1,1.1c0.1,0.9,0.4,1.8,1,2.4c1.7,1.8,6.4,6.5,17.5,16.1
				C155.7,484.6,156.6,484.8,157.4,484.6L157.4,484.6z"/>
		</g>
	</g>
	<g>
		<g>
			<g>
				<path class="st2" d="M141.1,456.2c0.6,0.4,0.9,1.3,0.5,2c-0.4,0.7-1.3,0.9-2,0.5c-0.7-0.4-1-1.5-0.6-2.1
					c0.4-0.6,1.6-0.9,2.1-0.3"/>
			</g>
		</g>
	</g>
	<g>
		<g>
			<g>
				<path class="st7" d="M151.1,474.1c0.1,0.1,0.6-1.3,2.1-2.1c1.4-0.8,2.8-0.6,2.8-0.7c0-0.1-0.3-0.2-0.9-0.3
					c-0.6-0.1-1.4,0.1-2.2,0.5c-0.8,0.4-1.3,1.1-1.6,1.6C151.1,473.7,151.1,474,151.1,474.1z"/>
			</g>
		</g>
	</g>
	<g>
		<g>
			<g>
				<path class="st7" d="M153.1,477.3c0.1,0.1,0.9-0.8,2.1-1.2c1.3-0.5,2.4-0.3,2.4-0.4c0.1-0.1-1.2-0.6-2.6-0.1
					C153.6,476.1,153,477.2,153.1,477.3z"/>
			</g>
		</g>
	</g>
	<g>
		<g>
			<g>
				<path class="st7" d="M147.6,470c0.1,0.1,1.3-1.2,3.2-2.1c1.9-0.9,3.6-0.9,3.6-1.1c0-0.1-1.8-0.4-3.9,0.6
					C148.5,468.3,147.5,469.9,147.6,470z"/>
			</g>
		</g>
	</g>
	<g>
		<g>
			<g>
				<path class="st7" d="M146.7,462.4c0.1,0.1,1.4-0.5,3.2-0.7c1.8-0.2,3.2,0.2,3.3,0c0.1-0.1-1.4-0.8-3.3-0.6
					C147.9,461.4,146.6,462.3,146.7,462.4z"/>
			</g>
		</g>
	</g>
	<g>
		<g>
			<g>
				<path class="st7" d="M146.3,455.1c0.1,0.1,1.4-0.8,3.3-0.8c1.9-0.1,3.3,0.8,3.3,0.6c0-0.1-0.3-0.4-0.8-0.7
					c-0.6-0.3-1.5-0.6-2.5-0.5c-1,0-1.9,0.3-2.5,0.6C146.5,454.8,146.2,455.1,146.3,455.1z"/>
			</g>
		</g>
	</g>
	<g>
		<g>
			<g>
				<path class="st7" d="M149.5,453c0,0,0.1-0.3,0-0.9c-0.1-0.6-0.3-1.5-0.9-2.4c-0.3-0.4-0.6-1-1.3-1.3c-0.4-0.1-0.9-0.1-1.1,0.3
					c-0.3,0.3-0.3,0.7-0.3,1.1c0.1,1.6,1.6,3,3.3,3.2c1.8,0.1,3.4-1,4-2.4c0.1-0.4,0.2-0.8,0-1.2c-0.2-0.4-0.7-0.6-1.1-0.5
					c-0.7,0.2-1.2,0.6-1.6,0.9c-0.8,0.7-1.3,1.5-1.6,2c-0.3,0.5-0.4,0.9-0.3,0.9c0.1,0.1,0.6-1.3,2.2-2.6c0.4-0.3,0.9-0.7,1.4-0.8
					c0.3,0,0.5,0.1,0.6,0.3c0.1,0.2,0.1,0.5,0,0.8c-0.5,1.1-2,2.2-3.5,2.1c-1.5-0.1-2.8-1.4-2.9-2.6c0-0.3,0-0.6,0.2-0.8
					c0.2-0.2,0.4-0.3,0.6-0.2c0.5,0.2,0.8,0.7,1.1,1.1C149.4,451.6,149.4,453,149.5,453z"/>
			</g>
		</g>
	</g>
	<g>
		<g>
			<path class="st7" d="M200.5,440.7l-1.3,18.6c0,0,18.5,7.6,18.6,11l-36.2-1.2l0.8-29.1L200.5,440.7z"/>
		</g>
	</g>
	<g>
		<g>
			<g>
				<path class="st1" d="M188.1,457.3c-0.7,0.2-1.2,0.9-1.1,1.7c0.1,0.7,0.9,1.2,1.6,1.1c0.7-0.2,1.3-1.1,1.1-1.8
					c-0.2-0.7-1.2-1.3-1.8-0.9"/>
			</g>
		</g>
	</g>
	<g>
		<g>
			<path class="st1" d="M181.7,469.1l0.2-2.9l34.6,2.2c0,0,1.6,0.8,1.4,1.9L181.7,469.1z"/>
		</g>
	</g>
	<g>
		<g>
			<g>
				<path class="st7" d="M199.8,459.1c0,0.2-0.9,0.2-1.8,0.8c-0.9,0.5-1.4,1.3-1.5,1.2c-0.2,0,0.1-1.1,1.2-1.7
					C198.8,458.7,199.9,458.9,199.8,459.1z"/>
			</g>
		</g>
	</g>
	<g>
		<g>
			<g>
				<path class="st7" d="M203.6,460.8c0,0.2-0.7,0.4-1.4,1.2c-0.6,0.7-0.8,1.5-1,1.5c-0.2,0-0.3-1,0.5-1.9
					C202.5,460.7,203.6,460.6,203.6,460.8z"/>
			</g>
		</g>
	</g>
	<g>
		<g>
			<g>
				<path class="st7" d="M205.6,465.4c-0.2,0-0.4-0.9,0.1-1.8c0.5-1,1.3-1.3,1.4-1.2c0.1,0.1-0.5,0.6-0.8,1.4
					C205.8,464.7,205.8,465.4,205.6,465.4z"/>
			</g>
		</g>
	</g>
	<g>
		<g>
			<g>
				<path class="st7" d="M199.7,454.8c-0.1,0.2-0.9-0.1-1.9-0.1c-1,0-1.8,0.3-1.9,0.2c-0.1-0.1,0.7-0.8,1.9-0.8
					C198.9,454.1,199.8,454.7,199.7,454.8z"/>
			</g>
		</g>
	</g>
	<g>
		<g>
			<g>
				<path class="st7" d="M199.9,451.1c0,0.1-0.7,0.2-1.8-0.1c-0.6-0.1-1.2-0.3-1.9-0.6c-0.3-0.2-0.7-0.4-1-0.6
					c-0.2-0.1-0.4-0.2-0.5-0.4c-0.2-0.2-0.3-0.7,0-0.9c0.2-0.3,0.5-0.4,0.8-0.4c0.3,0,0.5,0.1,0.7,0.1c0.4,0.1,0.8,0.3,1.1,0.4
					c0.7,0.3,1.2,0.8,1.6,1.2c0.8,0.8,1.1,1.5,1,1.5c-0.1,0.1-0.5-0.5-1.3-1.2c-0.4-0.3-0.9-0.7-1.6-1c-0.3-0.1-0.7-0.3-1-0.4
					c-0.4-0.1-0.7-0.1-0.8,0c0,0.1,0,0.1,0,0.2c0.1,0.1,0.2,0.2,0.4,0.3c0.3,0.2,0.6,0.4,0.9,0.6c0.6,0.3,1.2,0.6,1.7,0.7
					C199.2,450.9,199.9,451,199.9,451.1z"/>
			</g>
		</g>
	</g>
	<g>
		<g>
			<g>
				<path class="st7" d="M199.6,451.3c-0.1,0-0.4-0.6-0.4-1.8c0-0.6,0.1-1.3,0.3-2c0.1-0.4,0.3-0.7,0.5-1.1c0.2-0.4,0.5-0.8,1.2-0.9
					c0.4,0,0.6,0.3,0.7,0.5c0.1,0.2,0.1,0.5,0.2,0.7c0.1,0.4,0,0.8,0,1.2c-0.1,0.8-0.5,1.4-0.8,1.8c-0.7,0.9-1.5,1.1-1.5,1
					c-0.1-0.1,0.6-0.4,1.1-1.3c0.3-0.4,0.5-1,0.6-1.7c0-0.3,0.1-0.7,0-1c0-0.4-0.2-0.7-0.3-0.7c-0.2,0-0.5,0.3-0.7,0.6
					c-0.2,0.3-0.4,0.6-0.5,1c-0.2,0.6-0.4,1.3-0.4,1.8C199.5,450.6,199.7,451.3,199.6,451.3z"/>
			</g>
		</g>
	</g>
	<g>
		<g>
			<g>
				<polygon class="st7" points="126.2,257 131.5,457.1 160,456.2 166.9,250.2 				"/>
			</g>
		</g>
		<g>
			<g>
				<path class="st7" d="M185.5,249.9c0,0,21.2,84.8,21.8,99.3c0.7,14.5-4.5,104.8-4.5,104.8h-27.9l2.3-102.9L156,263.9l5.1-13.6
					L185.5,249.9z"/>
			</g>
		</g>
		<g>
			<g>
				<g>
					<path class="st8" d="M168.2,260.3c0,0,0,0.1,0,0.3c0,0.2,0,0.5,0,0.8c0,0.7-0.1,1.8-0.1,3c-0.1,2.7-0.3,6.5-0.5,11.2
						c-0.5,9.5-1.2,22.5-1.9,36.9c-0.8,14.4-1.5,27.5-2,36.9c-0.3,4.7-0.5,8.5-0.7,11.2c-0.1,1.3-0.2,2.3-0.2,3
						c0,0.3-0.1,0.6-0.1,0.8c0,0.2,0,0.3,0,0.3c0,0,0-0.1,0-0.3c0-0.2,0-0.5,0-0.8c0-0.7,0.1-1.8,0.1-3c0.1-2.7,0.3-6.5,0.5-11.2
						c0.5-9.5,1.2-22.5,1.9-37c0.8-14.4,1.5-27.5,2-36.9c0.3-4.7,0.5-8.5,0.7-11.2c0.1-1.3,0.2-2.3,0.2-3c0-0.3,0.1-0.6,0.1-0.8
						C168.2,260.4,168.2,260.3,168.2,260.3z"/>
				</g>
			</g>
		</g>
	</g>
	<g>
		<g>
			<path class="st0" d="M165.1,141.1c0,0,10.4,51.4,10.5,65.9c0.1,14.5,5.2,42.8,5.2,42.8H136l-1-78.4l-3.2-23.4l6.7-9.6
				L165.1,141.1z"/>
		</g>
	</g>
	<g>
		<g>
			<path class="st9" d="M165.6,142.6c0,0,10.7,3.1,13.5,7.1c2.2,3.1,5.2,62.3,5.2,62.3l4.6,52.1l-4.5-0.4l-6.3-19.5L165.6,142.6z"/>
		</g>
	</g>
	<g>
		<g>
			<path class="st9" d="M179.2,149.7l30.2,27.7l37.2-12.1l7.4,15.6l-39.7,18c-5.7,2.4-9.2,1.1-13.2-2.1l-20.8-16.7L179.2,149.7z"/>
		</g>
	</g>
	<g>
		<g>
			<g>
				<path class="st7" d="M239.7,170.4c0.2,0.4,0.1,0.9-0.3,1.1c-0.4,0.2-0.9,0.1-1.1-0.3c-0.2-0.4-0.1-0.9,0.3-1.1
					C239,169.9,239.5,170,239.7,170.4z"/>
			</g>
			<g>
				<path class="st7" d="M239,171.6c-0.1,0-0.2,0-0.2,0c-0.2-0.1-0.4-0.2-0.5-0.4c-0.1-0.2-0.1-0.4-0.1-0.6c0.1-0.2,0.2-0.4,0.4-0.5
					c0.2-0.1,0.4-0.1,0.6-0.1c0.2,0.1,0.4,0.2,0.5,0.4c0.1,0.2,0.1,0.4,0.1,0.6c-0.1,0.2-0.2,0.4-0.4,0.5
					C239.3,171.6,239.1,171.6,239,171.6z M239,170c-0.1,0-0.3,0-0.4,0.1c-0.2,0.1-0.3,0.3-0.4,0.5c-0.1,0.2,0,0.4,0.1,0.6
					c0.1,0.2,0.3,0.3,0.5,0.4c0.2,0.1,0.4,0,0.6-0.1c0.2-0.1,0.3-0.3,0.4-0.5c0.1-0.2,0-0.4-0.1-0.6C239.6,170.2,239.3,170,239,170z
					"/>
			</g>
		</g>
		<g>
			<g>
				<path class="st7" d="M242.8,169.7c0.2,0.4,0.1,0.9-0.3,1.1c-0.4,0.2-0.9,0.1-1.1-0.3c-0.2-0.4-0.1-0.9,0.3-1.1
					C242.1,169.1,242.6,169.3,242.8,169.7z"/>
			</g>
			<g>
				<path class="st7" d="M242.1,170.9c-0.1,0-0.2,0-0.2,0c-0.2-0.1-0.4-0.2-0.5-0.4c-0.2-0.4-0.1-0.9,0.3-1.1
					c0.2-0.1,0.4-0.1,0.6-0.1c0.2,0.1,0.4,0.2,0.5,0.4c0.1,0.2,0.1,0.4,0.1,0.6c-0.1,0.2-0.2,0.4-0.4,0.5
					C242.4,170.9,242.3,170.9,242.1,170.9z M242.1,169.3c-0.1,0-0.3,0-0.4,0.1c-0.4,0.2-0.5,0.7-0.3,1.1c0.1,0.2,0.3,0.3,0.5,0.4
					c0.2,0.1,0.4,0,0.6-0.1c0.4-0.2,0.5-0.7,0.3-1.1c-0.1-0.2-0.3-0.3-0.5-0.4C242.3,169.3,242.2,169.3,242.1,169.3z"/>
			</g>
		</g>
		<g>
			<g>
				<path class="st7" d="M245.8,169.1c0.2,0.4,0.1,0.9-0.3,1.1c-0.4,0.2-0.9,0.1-1.1-0.3c-0.2-0.4-0.1-0.9,0.3-1.1
					C245.1,168.5,245.6,168.7,245.8,169.1z"/>
			</g>
			<g>
				<path class="st7" d="M245.1,170.3c-0.1,0-0.2,0-0.2,0c-0.2-0.1-0.4-0.2-0.5-0.4c-0.1-0.2-0.1-0.4-0.1-0.6
					c0.1-0.2,0.2-0.4,0.4-0.5c0.4-0.2,0.9-0.1,1.1,0.3l0,0c0.2,0.4,0.1,0.9-0.3,1.1C245.4,170.3,245.2,170.3,245.1,170.3z
					 M245.1,168.7c-0.1,0-0.3,0-0.4,0.1c-0.2,0.1-0.3,0.3-0.4,0.5c-0.1,0.2,0,0.4,0.1,0.6c0.1,0.2,0.3,0.3,0.5,0.4
					c0.2,0.1,0.4,0,0.6-0.1c0.4-0.2,0.5-0.7,0.3-1.1l0,0C245.6,168.8,245.4,168.7,245.1,168.7z"/>
			</g>
		</g>
	</g>
	<g>
		<g>
			<polygon class="st1" points="247,166.2 249.9,165.2 256.5,179.1 253.7,180.3 			"/>
		</g>
	</g>
	<g>
		<g>
			<g>
				<path class="st7" d="M180.2,160.7c0,0,0.1,0.6,0.2,1.6c0.1,1.1,0.3,2.5,0.4,4.2c0.4,3.7,1,8.6,1.6,14c0.6,5.5,1.1,10.4,1.3,14
					c0.1,1.8,0.2,3.3,0.2,4.3c0,1,0,1.6-0.1,1.6c0,0-0.1-0.6-0.2-1.6c-0.1-1-0.2-2.5-0.3-4.2c-0.3-3.6-0.9-8.5-1.5-14
					c-0.6-5.5-1.1-10.4-1.4-14c-0.2-1.8-0.2-3.3-0.3-4.3C180.1,161.3,180.1,160.7,180.2,160.7z"/>
			</g>
		</g>
	</g>
	<g>
		<g>
			<g>
				<path class="st7" d="M186.8,167.6c0.1,0-0.7,3.4-1.9,7.5c-1.2,4.1-2.3,7.4-2.4,7.3c-0.1,0,0.7-3.4,1.9-7.5
					C185.6,170.9,186.6,167.6,186.8,167.6z"/>
			</g>
		</g>
	</g>
	<g>
		<g>
			<g>
				<path class="st7" d="M209.1,186.9c-0.1,0-0.4-0.5-0.7-1.3c-0.3-0.9-0.5-2.1-0.5-3.6c0.1-1.4,0.5-2.6,0.9-3.5
					c0.4-0.8,0.8-1.3,0.8-1.2c0.1,0.1-1.1,2-1.2,4.7C208.3,184.7,209.3,186.8,209.1,186.9z"/>
			</g>
		</g>
	</g>
	<g>
		<g>
			<polygon class="st1" points="205.7,219 209.5,219.3 208,235.5 204.3,235 			"/>
		</g>
	</g>
	<g>
		<g>
			<path class="st9" d="M138.5,139.6l-20.9,13.3c-4.9,3.4-7,9.7-5.1,15.4l16,50.3l-5.8,45.7l45.7-1.9l-1.1-20l-3.9-35.8
				c-0.7-6.6-2.4-13.2-4.9-19.3L138.5,139.6z"/>
		</g>
	</g>
	<g>
		<g>
			<path class="st9" d="M116.7,171.1l20.9,43.7c1.7,3.5,4.9,6.1,8.7,7l57.9,13.7l1.5-16.9L161.5,202l-22.2-42.7
				c-3.4-6.5-11.5-8.8-17.8-5l0,0C115.7,157.7,113.6,165.1,116.7,171.1z"/>
		</g>
	</g>
	<g>
		<g>
			<g>
				<path class="st7" d="M205.7,218.6c0,0-0.1,0-0.2-0.1c-0.2-0.1-0.4-0.1-0.7-0.2c-0.6-0.2-1.5-0.5-2.6-0.9
					c-2.3-0.9-5.6-2.1-9.7-3.6c-8.3-3.1-19.7-7.4-32.7-12.2l-0.1,0l0-0.1c-1.2-2.4-2.5-5-3.8-7.6c-3.6-7.1-7.2-13.7-10.6-19.7
					c-1.7-3-3.3-5.8-4.9-8.5c-0.8-1.3-1.5-2.6-2.2-3.8c-0.4-0.6-0.7-1.2-1.1-1.8c-0.3-0.6-0.8-1.1-1.2-1.6c-1.6-2-3.7-3.3-5.6-4
					c-1.9-0.8-3.7-1-5.1-0.9c-2.9,0.1-4.3,1.2-4.3,1.1c0,0,0.1-0.1,0.2-0.2c0.2-0.1,0.4-0.3,0.8-0.4c0.7-0.3,1.8-0.7,3.3-0.8
					c1.5-0.1,3.3,0.1,5.2,0.8c1.9,0.7,4,2,5.7,4.1c0.4,0.5,0.9,1,1.2,1.6c0.4,0.6,0.8,1.2,1.1,1.8c0.7,1.2,1.5,2.5,2.3,3.8
					c1.6,2.6,3.2,5.5,4.9,8.5c3.4,6,7,12.6,10.7,19.7c1.3,2.6,2.6,5.2,3.8,7.6l-0.1-0.1c13,4.9,24.4,9.3,32.6,12.4
					c4.1,1.6,7.3,2.8,9.6,3.7c1.1,0.4,2,0.8,2.6,1c0.3,0.1,0.5,0.2,0.7,0.3C205.6,218.5,205.7,218.6,205.7,218.6z"/>
			</g>
		</g>
	</g>
	<g>
		<g>
			<g>
				<path class="st7" d="M195.8,229.1c0,0.5-0.4,0.8-0.8,0.8c-0.5,0-0.8-0.4-0.8-0.8c0-0.5,0.4-0.8,0.8-0.8
					C195.5,228.3,195.8,228.7,195.8,229.1z"/>
			</g>
			<g>
				<path class="st7" d="M195,229.9c-0.5,0-0.8-0.4-0.8-0.8c0-0.5,0.4-0.8,0.8-0.8c0.5,0,0.8,0.4,0.8,0.8
					C195.9,229.6,195.5,229.9,195,229.9z M195,228.3c-0.4,0-0.8,0.4-0.8,0.8c0,0.4,0.4,0.8,0.8,0.8c0.4,0,0.8-0.4,0.8-0.8
					C195.8,228.7,195.5,228.3,195,228.3z"/>
			</g>
		</g>
		<g>
			<g>
				<path class="st7" d="M198.9,229.9c0,0.5-0.4,0.8-0.8,0.8c-0.5,0-0.8-0.4-0.8-0.8c0-0.5,0.4-0.8,0.8-0.8
					C198.6,229.1,198.9,229.5,198.9,229.9z"/>
			</g>
			<g>
				<path class="st7" d="M198.1,230.8c-0.5,0-0.8-0.4-0.8-0.8c0-0.5,0.4-0.8,0.8-0.8s0.8,0.4,0.8,0.8
					C199,230.4,198.6,230.8,198.1,230.8z M198.1,229.1c-0.4,0-0.8,0.4-0.8,0.8c0,0.4,0.4,0.8,0.8,0.8c0.4,0,0.8-0.4,0.8-0.8
					C198.9,229.5,198.6,229.1,198.1,229.1z"/>
			</g>
		</g>
		<g>
			<g>
				<circle class="st7" cx="201" cy="230.8" r="0.8"/>
			</g>
			<g>
				<path class="st7" d="M201,231.6c-0.5,0-0.8-0.4-0.8-0.8c0-0.5,0.4-0.8,0.8-0.8c0.5,0,0.8,0.4,0.8,0.8
					C201.9,231.3,201.5,231.6,201,231.6z M201,230c-0.4,0-0.8,0.4-0.8,0.8c0,0.4,0.4,0.8,0.8,0.8c0.4,0,0.8-0.4,0.8-0.8
					C201.8,230.4,201.5,230,201,230z"/>
			</g>
		</g>
	</g>
	<g>
		<g>
			<g>
				<path class="st7" d="M204.2,235.5c0,0-0.1,0-0.3,0c-0.2,0-0.5-0.1-0.8-0.2c-0.8-0.2-1.8-0.4-3.1-0.7c-2.7-0.7-6.6-1.6-11.5-2.8
					c-9.7-2.4-23-5.7-37.8-9.2c-1.8-0.4-3.7-0.8-5.5-1.3c-1.8-0.5-3.6-1.2-5-2.5c-1.4-1.3-2.3-2.9-3-4.4c-0.7-1.6-1.5-3.1-2.2-4.6
					c-2.8-5.9-5.4-11.3-7.5-15.8c-2.1-4.5-3.8-8.1-5-10.7c-0.6-1.2-1-2.2-1.3-2.9c-0.1-0.3-0.2-0.6-0.3-0.8
					c-0.1-0.2-0.1-0.3-0.1-0.3c0,0,0.1,0.1,0.1,0.2c0.1,0.2,0.2,0.4,0.4,0.7c0.3,0.7,0.8,1.7,1.4,2.9c1.2,2.5,3,6.2,5.2,10.6
					c2.2,4.5,4.7,9.8,7.6,15.8c0.7,1.5,1.4,3,2.2,4.6c0.8,1.5,1.6,3.1,2.9,4.2c1.3,1.2,3,1.9,4.7,2.4c1.8,0.5,3.6,0.8,5.5,1.3
					c14.8,3.4,28.1,6.8,37.8,9.3c4.8,1.3,8.7,2.3,11.4,3c1.3,0.4,2.4,0.6,3.1,0.8c0.3,0.1,0.6,0.2,0.8,0.2
					C204.1,235.4,204.2,235.4,204.2,235.5z"/>
			</g>
		</g>
	</g>
	<g>
		<g>
			<g>
				<path class="st7" d="M157.4,232.7c0,0-0.2,0.2-0.7,0.6c-0.5,0.3-1.1,0.8-2,1.4c-1.7,1.1-4.2,2.7-7.2,3.7c-3,1.1-6,1.2-8.1,0.8
					c-1-0.2-1.8-0.4-2.4-0.7c-0.5-0.2-0.8-0.4-0.8-0.4c0-0.1,1.2,0.5,3.2,0.8c2,0.3,4.9,0.1,7.8-0.9c2.9-1,5.4-2.5,7.2-3.6
					C156.3,233.3,157.4,232.7,157.4,232.7z"/>
			</g>
		</g>
	</g>
	<g>
		<g>
			<g>
				<path class="st7" d="M160,238.5c0,0,0.1,0.1,0.1,0.4c0.1,0.3,0.2,0.6,0.3,1.1c0.2,1,0.3,2.5,0,4.2c-0.3,1.8-1.1,3.8-2.6,5.7
					c-1.5,1.9-3.8,3.4-6.4,4.2c-2.7,0.7-5.4,0.6-7.7-0.2c-2.3-0.8-4-2.2-5.2-3.6c-1.2-1.4-1.9-2.7-2.2-3.6c-0.2-0.5-0.3-0.8-0.4-1.1
					c-0.1-0.3-0.1-0.4-0.1-0.4c0.1-0.1,0.5,2.2,2.9,4.9c1.2,1.3,2.9,2.6,5.1,3.3c2.2,0.8,4.8,0.9,7.4,0.2c2.6-0.7,4.8-2.2,6.2-4
					c1.5-1.8,2.2-3.8,2.6-5.5C160.7,240.7,159.8,238.5,160,238.5z"/>
			</g>
		</g>
	</g>
	<g>
		<g>
			<g>
				<g>
					<g>
						<g>
							<g>
								<g>
									<g>
										<g>
											<g>
												<g>
													<g>
														<g>
															<g>
																<g>
																	<g>
																		<path class="st10" d="M140.8,99.8l0.1,37.3c0,6.3,5.3,11.4,11.7,11l0,0c5.9-0.3,10.5-5.2,10.5-11.1
																			c0-2.8,0-5.1,0-5.4c0,0,9.5-0.9,10.1-10.3c0.3-4.5,0.2-13.9,0-22.4c-0.2-9.1-7.4-16.6-16.5-17.1l-0.9-0.1
																			C146,81.7,140.5,90,140.8,99.8z"/>
																	</g>
																</g>
															</g>
														</g>
													</g>
												</g>
											</g>
										</g>
									</g>
								</g>
							</g>
							<g>
								<g>
									<g>
										<g>
											<g>
												<g>
													<g>
														<g>
															<g>
																<g>
																	<g>
																		<path class="st11" d="M163.1,131.4c0,0-6,0.1-12.1-4.2c0,0,2.5,6.9,11.9,6.6L163.1,131.4z"/>
																	</g>
																</g>
															</g>
														</g>
													</g>
												</g>
											</g>
										</g>
									</g>
								</g>
							</g>
						</g>
					</g>
				</g>
				<g>
					<g>
						<g>
							<g>
								<g>
									<g>
										<g>
											<g>
												<g>
													<g>
														<g>
															<g>
																<path class="st10" d="M141.2,106.8c-0.2-0.1-6.3-2.3-6.5,4.2c-0.2,6.4,6.3,5.3,6.4,5.1
																	C141,115.9,141.2,106.8,141.2,106.8z"/>
															</g>
														</g>
													</g>
												</g>
											</g>
										</g>
									</g>
								</g>
							</g>
						</g>
					</g>
					<g>
						<g>
							<g>
								<g>
									<g>
										<g>
											<g>
												<g>
													<g>
														<g>
															<g>
																<g>
																	<path class="st11" d="M139.1,113.6c0,0-0.1,0.1-0.3,0.2c-0.2,0.1-0.5,0.1-0.8,0c-0.7-0.3-1.2-1.4-1.2-2.5
																		c0-0.6,0.1-1.1,0.4-1.6c0.2-0.5,0.5-0.8,0.9-0.8c0.3-0.1,0.6,0.1,0.7,0.3c0.1,0.2,0,0.3,0.1,0.3
																		c0,0,0.1-0.1,0.1-0.4c0-0.1-0.1-0.3-0.2-0.4c-0.2-0.1-0.4-0.2-0.6-0.2c-0.5,0-1,0.5-1.2,1
																		c-0.3,0.5-0.4,1.1-0.4,1.8c0,1.3,0.6,2.5,1.6,2.8c0.4,0.1,0.8,0,1-0.1C139.1,113.7,139.1,113.6,139.1,113.6z"/>
																</g>
															</g>
														</g>
													</g>
												</g>
											</g>
										</g>
									</g>
								</g>
							</g>
						</g>
					</g>
				</g>
			</g>
		</g>
		<g>
			<g>
				<g>
					<g>
						<g>
							<g>
								<g>
									<path class="st7" d="M137.6,106.4c1-0.2,2.6,0.8,3,1.8c0.4,0.9,0.4,2,0.8,2.9c0.4,0.9,1.3,1.8,2.3,1.6
										c0.7-0.1,1.2-0.7,1.4-1.4c0.2-0.7,0.2-1.4,0.1-2.1c-0.2-3-0.7-6-0.6-9.1c0.1-3,0.7-6.1,2.4-8.6c1.7-2.5,4.8-4.2,7.8-3.8
										c2,0.3,3.8,1.4,5.7,1.8c2.3,0.5,4.9-0.2,6.6-1.8c0.1-0.1,0.2-0.1,0.3-0.2c0.6-0.4,1-1.2,0.7-2c-0.1-0.3-0.2-0.5-0.3-0.6
										c-3.7-3.9-10.8-5.3-16-4.3c-5.3,1-10.4,4.4-12.9,9.1C136.4,94.6,136.6,101.4,137.6,106.4"/>
								</g>
							</g>
						</g>
					</g>
				</g>
			</g>
		</g>
	</g>
	<g>
		<g>
			<g>
				<g>
					<g>
						<path class="st10" d="M247.8,167.8c0,0,7-6.2,8.4-6.6c1.3-0.5,11.9-0.7,12.7-0.1c0.7,0.5,11.5,6.4,9.7,7.3
							c-1.8,0.9-9.2-3.3-9.2-3.3l-1.3,0.2c0,0,6.5,3.5,7.7,4.8c1.1,1.2,0,2.7-1.2,2.1c-1.2-0.6-6.8-3.8-7.2-3.7
							c-0.4,0.1,5.9,3.9,6.5,4.5c0.8,0.9,0.3,2.7-0.9,2.2c-0.7-0.3-6.6-4.2-6.6-4.2s4.4,3.7,4.8,4.4c0.5,1-0.5,1.9-1.5,1.3
							c-0.7-0.4-3.7-3.4-4.7-4c0,0-1-0.1-2.6,1.6c-1.5,1.6-7.6,3.9-7.6,3.9L247.8,167.8z"/>
					</g>
				</g>
			</g>
			<g>
				<g>
					<g>
						<g>
							<path class="st11" d="M278.5,168.4c0,0.1-0.9,0.1-2.3-0.1c-0.7-0.1-1.5-0.4-2.4-0.7c-0.8-0.4-1.7-0.9-2.7-1.3
								c-0.7-0.4-1.4-0.7-2-1l0.1,0c-3.2,0-5.5,0-5.5-0.2c0-0.1,2.3-0.3,5.4-0.4l0.1,0l0.1,0c0.6,0.3,1.3,0.7,2,1
								c0.9,0.5,1.8,0.9,2.7,1.4c0.8,0.4,1.6,0.6,2.3,0.8C277.6,168.2,278.5,168.3,278.5,168.4z"/>
						</g>
					</g>
				</g>
			</g>
		</g>
		<g>
			<g>
				<g>
					<g>
						<path class="st10" d="M250.4,169.6c0.5,0.9,1.7,1.1,2.7,0.9c1-0.2,1.9-0.7,2.8-1c2.9-0.8,6.1,0.7,8.9-0.3
							c0.4-0.1,0.8-0.4,0.8-0.8c0-0.4-0.5-0.6-0.8-0.7c-3.2-1-6.3-2-9.5-3"/>
					</g>
				</g>
			</g>
			<g>
				<g>
					<g>
						<g>
							<path class="st11" d="M255.3,164.7c0,0,0.4,0,1.1,0.2c0.7,0.2,1.6,0.5,2.8,0.8c1.2,0.4,2.6,0.8,4.2,1.3
								c0.4,0.1,0.8,0.2,1.2,0.4c0.4,0.1,0.9,0.2,1.3,0.8c0.2,0.3,0.1,0.7-0.1,0.9c-0.2,0.2-0.4,0.3-0.7,0.4
								c-0.5,0.2-0.9,0.3-1.4,0.3c-2,0.2-3.7-0.3-5.4-0.3c-0.8,0-1.6,0-2.2,0.2c-0.7,0.2-1.3,0.5-1.9,0.7c-1.2,0.5-2.3,0.4-3,0
								c-0.6-0.4-0.7-0.8-0.7-0.8c0,0,0.2,0.4,0.8,0.6c0.6,0.3,1.6,0.3,2.7-0.2c0.6-0.2,1.2-0.5,1.9-0.8c0.7-0.2,1.5-0.3,2.4-0.3
								c1.7,0,3.5,0.4,5.3,0.2c0.5,0,0.9-0.2,1.3-0.3c0.4-0.1,0.7-0.4,0.5-0.6c-0.1-0.2-0.5-0.4-0.9-0.5c-0.4-0.1-0.8-0.3-1.2-0.4
								c-1.5-0.5-2.9-1-4.1-1.4c-1.2-0.4-2.1-0.7-2.8-1C255.7,164.8,255.3,164.7,255.3,164.7z"/>
						</g>
					</g>
				</g>
			</g>
		</g>
	</g>
	<g>
		<g>
			<path class="st10" d="M207.8,219.4l11.7-1.2c0,0,15.5,10.6,14,12.9c-1.5,2.3-4,0-4,0s2.8,3.4-1.7,4.4c0,0-1.1,2.3-2.8,2.1l-1.1,0
				c0,0-1,3-2.4,2.3c-1.4-0.6-5.7-4.4-5.7-4.4l-12-1.1L207.8,219.4z"/>
		</g>
	</g>
	<g>
		<g>
			<path class="st12" d="M215.1,231.5c0,0-3,1.1-3.6,2.4c-0.6,1.2-1,4,0.9,4.6c0.7,0.2,3.4-0.1,3.4-0.1l-0.7-3.1
				c0,0,1.1-1.3,1.8-1.8C217.5,232.7,216.8,230.7,215.1,231.5z"/>
		</g>
	</g>
	<g>
		<g>
			<path class="st12" d="M218.4,233.1c0,0-3,1.1-3.6,2.4c-0.6,1.2-0.2,3.2,1.7,3.7c0.7,0.2,3.1-0.1,3.1-0.1l-0.3-0.6
				c-0.6-1.2-0.9-2.1,0.2-2.9c0.1,0,0.7-0.6,0.7-0.6C220.8,234.3,220.1,232.3,218.4,233.1z"/>
		</g>
	</g>
	<g>
		<g>
			<path class="st12" d="M219.1,238.9c-0.5-0.5-0.6-1.4-0.2-2.1c0.4-0.7,1-1.1,1.8-1.3c0.5-0.1,1.1-0.2,1.4,0.2
				c0.2,0.2,0.2,0.6,0.2,0.9c-0.1,0.8-0.7,1.5-1.2,2.2c-0.3,0.3-0.6,0.7-1.1,0.7c-0.5,0-0.8-0.4-1-0.8"/>
		</g>
	</g>
	<g>
		<g>
			<g>
				<polygon class="st13" points="156,144.7 158.6,143.7 160.9,147.8 159.6,152.1 156.9,152.8 154.2,149.4 				"/>
			</g>
		</g>
		<g>
			<g>
				<path class="st13" d="M156.9,152.8c0,0,3.4,18.7,6.2,31.9c0,0,2.3,11,3.3,13.5c1.1,2.8,4.3,7,4.3,7l3.3,1.3l-2-18.5l-12.4-35.8
					L156.9,152.8z"/>
			</g>
		</g>
		<g class="st14">
			<g>
				<polygon class="st13" points="156,144.7 158.6,143.7 160.9,147.8 159.6,152.1 156.9,152.8 154.2,149.4 				"/>
			</g>
		</g>
		<g class="st14">
			<g>
				<path class="st13" d="M156.9,152.8c0,0,3.4,18.7,6.2,31.9c0,0,2.7,10.9,3.3,13.5c0.4,1.5,4.3,7,4.3,7l3.3,1.3l-2-18.5
					l-12.4-35.8L156.9,152.8z"/>
			</g>
		</g>
	</g>
	<g>
		<g>
			<g>
				<polygon class="st0" points="140.2,133.3 156,144.7 152.5,154.1 138.2,139.3 				"/>
			</g>
		</g>
		<g>
			<g>
				<polygon class="st0" points="158.6,143.7 163,133.8 165.5,142 162,150.5 				"/>
			</g>
		</g>
		<g>
			<g>
				<g>
					<path class="st7" d="M156,144.7c0,0,0,0.3-0.2,0.7c-0.2,0.5-0.4,1.2-0.6,2c-0.6,1.7-1.4,4-2.4,6.8l-0.1,0.4l-0.3-0.3
						c-1.1-1.3-2.4-2.6-3.7-4.1c-2.9-3.2-5.4-6.1-7.3-8.2c-0.9-1-1.6-1.8-2.2-2.5c-0.5-0.6-0.8-0.9-0.7-1c0,0,0.3,0.3,0.9,0.8
						c0.6,0.6,1.4,1.5,2.3,2.4c1.9,2,4.5,4.9,7.4,8.1c1.3,1.4,2.5,2.8,3.7,4.1l-0.4,0.1c1-2.7,1.9-5.1,2.5-6.7
						c0.3-0.7,0.6-1.4,0.8-1.9C155.8,144.9,155.9,144.7,156,144.7z"/>
				</g>
			</g>
		</g>
		<g>
			<g>
				<g>
					<path class="st7" d="M165.5,142c0.1,0-0.2,0.9-0.7,2.3c-0.5,1.4-1.3,3.3-2.1,5.4c-0.1,0.3-0.3,0.6-0.4,0.9l-0.3,0.6l-0.2-0.6
						c-1.3-3.8-3.3-6.4-3.1-6.5c0,0,0.6,0.6,1.3,1.6c0.7,1.1,1.6,2.7,2.3,4.6l-0.5,0c0.1-0.3,0.2-0.6,0.4-0.9c0.9-2.1,1.7-4,2.3-5.4
						C165,142.8,165.4,141.9,165.5,142z"/>
				</g>
			</g>
		</g>
	</g>
</g>
<g id="Character_2">
	<g>
		<g>
			<path class="st7" d="M366,438.1l6.1,24.1l10.3,17.7c0.7,1.3,0.3,2.9-1.1,3.6l0,0c-0.7,0.4-1.6,0.4-2.3,0
				c-4.6-2.5-21.6-11.8-22-13.6c-0.4-2.1-8.1-25-8.1-25L366,438.1z"/>
		</g>
	</g>
	<g class="st15">
		<g>
			<path class="st2" d="M381.4,483.5l-24.8-15.2l0.3,1c0.2,0.9,0.8,1.6,1.5,2.2c2,1.4,7.7,5,20.5,12
				C379.7,483.9,380.6,483.9,381.4,483.5L381.4,483.5z"/>
		</g>
	</g>
	<g class="st15">
		<g>
			<g>
				<path class="st2" d="M359.4,459.2c0.7,0.2,1.2,1.1,0.9,1.8c-0.2,0.7-1.1,1.2-1.8,1c-0.7-0.2-1.3-1.2-1-1.9
					c0.3-0.7,1.3-1.2,2-0.8"/>
			</g>
		</g>
	</g>
	<g>
		<g>
			<g>
				<path class="st7" d="M373,474.5c0.2,0,0.3-1.4,1.6-2.4c1.2-1.1,2.6-1.1,2.6-1.3c0-0.1-0.4-0.2-0.9-0.1c-0.6,0.1-1.4,0.4-2,1
					c-0.7,0.6-1.1,1.4-1.2,1.9C372.9,474.2,372.9,474.5,373,474.5z"/>
			</g>
		</g>
	</g>
	<g>
		<g>
			<g>
				<path class="st7" d="M375.6,477.3c0.1,0.1,0.7-0.9,1.8-1.6c1.1-0.7,2.3-0.8,2.3-1c0-0.1-1.3-0.3-2.6,0.5
					C375.8,476,375.4,477.2,375.6,477.3z"/>
			</g>
		</g>
	</g>
	<g>
		<g>
			<g>
				<path class="st7" d="M368.7,471.3c0.1,0.1,1-1.4,2.7-2.7c1.7-1.3,3.4-1.7,3.3-1.8c0-0.1-1.9,0-3.7,1.4
					C369.2,469.5,368.5,471.2,368.7,471.3z"/>
			</g>
		</g>
	</g>
	<g>
		<g>
			<g>
				<path class="st7" d="M366.2,464.1c0.1,0.1,1.3-0.8,3-1.3c1.7-0.6,3.2-0.5,3.2-0.7c0-0.1-1.5-0.5-3.4,0.1
					C367.2,462.8,366.1,464,366.2,464.1z"/>
			</g>
		</g>
	</g>
	<g>
		<g>
			<g>
				<path class="st7" d="M364.2,457.1c0.1,0.1,1.2-1.1,3.1-1.5c1.8-0.5,3.4,0.1,3.4-0.1c0-0.1-0.3-0.3-1-0.5c-0.6-0.2-1.6-0.2-2.6,0
					c-1,0.2-1.8,0.7-2.3,1.2C364.4,456.7,364.2,457,364.2,457.1z"/>
			</g>
		</g>
	</g>
	<g>
		<g>
			<g>
				<path class="st7" d="M366.9,454.3c0,0,0-0.3-0.2-0.9c-0.2-0.6-0.6-1.4-1.4-2.2c-0.4-0.4-0.8-0.9-1.6-1c-0.4-0.1-0.9,0.1-1.1,0.5
					c-0.2,0.4-0.2,0.8-0.1,1.2c0.4,1.5,2.2,2.6,3.9,2.4c1.8-0.3,3.1-1.7,3.4-3.2c0.1-0.4,0-0.8-0.3-1.2c-0.3-0.4-0.8-0.4-1.2-0.2
					c-0.7,0.3-1,0.8-1.4,1.3c-0.6,0.9-1,1.7-1.1,2.3c-0.2,0.6-0.2,0.9-0.1,0.9c0.1,0,0.3-1.3,1.6-3c0.3-0.4,0.7-0.9,1.2-1.1
					c0.2-0.1,0.5-0.1,0.6,0.1c0.1,0.2,0.2,0.5,0.1,0.8c-0.3,1.2-1.5,2.5-3,2.7c-1.5,0.2-3-0.7-3.4-2c-0.1-0.3-0.1-0.6,0-0.8
					c0.1-0.2,0.3-0.3,0.6-0.3c0.5,0.1,1,0.5,1.3,0.8C366.5,452.9,366.8,454.3,366.9,454.3z"/>
			</g>
		</g>
	</g>
	<g>
		<g>
			<path class="st7" d="M290.6,442.6l1.3,18.6c0,0-18.5,7.6-18.6,11l36.2-1.2l-0.8-29.1L290.6,442.6z"/>
		</g>
	</g>
	<g>
		<g>
			<g>
				<path class="st1" d="M303.1,459.2c0.7,0.2,1.2,0.9,1.1,1.7c-0.1,0.7-0.9,1.2-1.6,1.1c-0.7-0.2-1.3-1.1-1.1-1.8
					c0.2-0.7,1.2-1.3,1.8-0.9"/>
			</g>
		</g>
	</g>
	<g>
		<g>
			<path class="st1" d="M309.5,471l-0.2-2.9l-34.6,2.2c0,0-1.6,0.8-1.4,1.9L309.5,471z"/>
		</g>
	</g>
	<g>
		<g>
			<g>
				<path class="st7" d="M291.3,461c0,0.2,0.9,0.2,1.8,0.8c0.9,0.5,1.4,1.3,1.5,1.2c0.2,0-0.1-1.1-1.2-1.7
					C292.3,460.6,291.3,460.9,291.3,461z"/>
			</g>
		</g>
	</g>
	<g>
		<g>
			<g>
				<path class="st7" d="M287.6,462.7c0,0.2,0.7,0.4,1.4,1.2c0.6,0.7,0.8,1.5,1,1.5c0.2,0,0.3-1-0.5-1.9
					C288.6,462.6,287.6,462.5,287.6,462.7z"/>
			</g>
		</g>
	</g>
	<g>
		<g>
			<g>
				<path class="st7" d="M285.6,467.3c0.2,0,0.4-0.9-0.1-1.8c-0.5-1-1.3-1.3-1.4-1.2c-0.1,0.1,0.5,0.6,0.8,1.4
					C285.3,466.6,285.4,467.3,285.6,467.3z"/>
			</g>
		</g>
	</g>
	<g>
		<g>
			<g>
				<path class="st7" d="M291.5,456.7c0.1,0.2,0.9-0.1,1.9-0.1c1,0,1.8,0.3,1.9,0.2c0.1-0.1-0.7-0.8-1.9-0.8
					C292.2,456,291.4,456.6,291.5,456.7z"/>
			</g>
		</g>
	</g>
	<g>
		<g>
			<g>
				<path class="st7" d="M291.3,453c0,0.1,0.7,0.2,1.8-0.1c0.6-0.1,1.2-0.3,1.9-0.6c0.3-0.2,0.7-0.4,1-0.6c0.2-0.1,0.4-0.2,0.5-0.4
					c0.2-0.2,0.3-0.7,0-0.9c-0.2-0.3-0.5-0.4-0.8-0.4c-0.3,0-0.5,0.1-0.7,0.1c-0.4,0.1-0.8,0.3-1.1,0.4c-0.7,0.3-1.2,0.8-1.6,1.2
					c-0.8,0.8-1.1,1.5-1,1.5c0.1,0.1,0.5-0.5,1.3-1.2c0.4-0.3,0.9-0.7,1.6-1c0.3-0.1,0.7-0.3,1-0.4c0.4-0.1,0.7-0.1,0.8,0
					c0,0.1,0,0.1,0,0.2c-0.1,0.1-0.2,0.2-0.4,0.3c-0.3,0.2-0.6,0.4-0.9,0.6c-0.6,0.3-1.2,0.6-1.7,0.7
					C292,452.8,291.3,452.9,291.3,453z"/>
			</g>
		</g>
	</g>
	<g>
		<g>
			<g>
				<path class="st7" d="M291.6,453.2c0.1,0,0.4-0.6,0.4-1.8c0-0.6-0.1-1.3-0.3-2c-0.1-0.4-0.3-0.7-0.5-1.1
					c-0.2-0.4-0.5-0.8-1.2-0.9c-0.4,0-0.6,0.3-0.7,0.5c-0.1,0.2-0.1,0.5-0.2,0.7c-0.1,0.4,0,0.8,0,1.2c0.1,0.8,0.5,1.4,0.8,1.8
					c0.7,0.9,1.5,1.1,1.5,1c0.1-0.1-0.6-0.4-1.1-1.3c-0.3-0.4-0.5-1-0.6-1.7c0-0.3-0.1-0.7,0-1c0-0.4,0.2-0.7,0.3-0.7
					c0.2,0,0.5,0.3,0.7,0.6c0.2,0.3,0.4,0.6,0.5,1c0.2,0.6,0.4,1.3,0.4,1.8C291.6,452.5,291.5,453.2,291.6,453.2z"/>
			</g>
		</g>
	</g>
	<g>
		<g>
			<g>
				<g>
					<g>
						<g>
							<g>
								<g>
									<g>
										<polygon class="st7" points="280.8,240.1 286.6,456.7 315.1,455.8 312.9,270 349.3,461 375.1,454.3 341.8,240.6 
																					"/>
									</g>
								</g>
							</g>
						</g>
					</g>
				</g>
			</g>
		</g>
		<g>
			<g>
				<g>
					<path class="st8" d="M296.4,457c-0.1,0-0.3-44.9-0.3-100.3c0-55.4,0.1-100.3,0.3-100.3s0.3,44.9,0.3,100.3
						C296.7,412.1,296.5,457,296.4,457z"/>
				</g>
			</g>
		</g>
		<g>
			<g>
				<g>
					<path class="st8" d="M357.4,460.9c-0.1,0-6.8-43-14.9-96.1c-8.1-53.1-14.5-96.2-14.4-96.2c0.1,0,6.8,43,14.9,96.1
						C351.1,417.8,357.6,460.9,357.4,460.9z"/>
				</g>
			</g>
		</g>
	</g>
	<g>
		<g>
			<g>
				<path class="st7" d="M321.6,104.7c0.8-2.3,2-4.5,2.4-6.9c0.3-1.8,0.9-4.5,0.2-6.2c-0.7-1.7-2.5-3.3-4.7-2.8
					c-0.6-3.6-2.4-6.4-6-8.2c-3.2-1.6-6.4-2.3-10-2.6c-1.1-0.1-2.8,0-3.8,0.5c-1,0.5-1.9,1.4-2.3,2.4c-1.9-1.5-4.6-1.9-7.4-1.2
					c-2.8,0.7-5.9,2.2-7.1,4.8c-0.7,1.6-1,3.6-0.2,6.1c0.5,1.7,2.3,4.3,4,3.7"/>
			</g>
		</g>
		<g>
			<g>
				<g>
					<g>
						<g>
							<g>
								<g>
									<g>
										<g>
											<g>
												<g>
													<g>
														<g>
															<g>
																<path class="st12" d="M307.7,151.4L307.7,151.4c-7-0.1-12.4-6-12.1-13c0.2-3.5,0.3-6.2,0.3-6.2s-9.4-1.2-9.8-10.6
																	c-0.4-9.4,0.7-30.9,0.7-30.9l0,0c10.7-4.9,23.3-3.7,32.9,3.3l1.4,1l-0.9,44.3C320.2,146.2,314.6,151.6,307.7,151.4z
																	"/>
															</g>
														</g>
													</g>
												</g>
											</g>
										</g>
									</g>
									<g>
										<g>
											<g>
												<g>
													<g>
														<g>
															<g>
																<path class="st16" d="M296,132.1c0,0,5.9,0.3,12.1-3.8c0,0-2.9,7.3-12.3,6.7L296,132.1z"/>
															</g>
														</g>
													</g>
												</g>
											</g>
										</g>
									</g>
								</g>
							</g>
						</g>
						<g>
							<g>
								<g>
									<g>
										<g>
											<g>
												<g>
													<g>
														<path class="st12" d="M320.3,104.7c0.2-0.1,6.4-2.1,6.4,4.3c0,6.4-6.5,5-6.5,4.9C320.2,113.8,320.3,104.7,320.3,104.7
															z"/>
													</g>
												</g>
											</g>
										</g>
									</g>
								</g>
							</g>
							<g>
								<g>
									<g>
										<g>
											<g>
												<g>
													<g>
														<g>
															<path class="st16" d="M322.2,111.5c0,0,0.1,0.1,0.3,0.2c0.2,0.1,0.5,0.1,0.8,0c0.7-0.2,1.3-1.3,1.3-2.5
																c0-0.6-0.1-1.1-0.3-1.6c-0.2-0.5-0.5-0.8-0.8-0.9c-0.3-0.1-0.6,0.1-0.7,0.3c-0.1,0.2,0,0.3-0.1,0.3
																c0,0-0.1-0.1-0.1-0.4c0-0.1,0.1-0.3,0.3-0.4c0.2-0.1,0.4-0.2,0.6-0.2c0.5,0,0.9,0.5,1.2,1c0.3,0.5,0.4,1.1,0.4,1.8
																c0,1.3-0.7,2.5-1.6,2.8c-0.5,0.1-0.8,0-1-0.2C322.2,111.7,322.1,111.6,322.2,111.5z"/>
														</g>
													</g>
												</g>
											</g>
										</g>
									</g>
								</g>
							</g>
						</g>
					</g>
				</g>
				<g>
					<g>
						<g>
							<g>
								<path class="st7" d="M321.7,95.7c-0.1,2.7,0.6,5.8,0.2,8.5c-0.1,0.4-1.1,1.5-1.2,1.9c-0.5,2.4-1.5,3.4-2.9,1
									c-0.6-0.9-1-3.5-1.2-4.6c-0.6-2.9-1.3-5.7-1.9-8.6c-2.2,1.1-4.6,2-7.1,1.9c-2.5-0.1-5-1.3-6.2-3.4c-1.1,2-3.2,3.4-5.4,3.7
									c-2.2,0.4-4.6-0.4-6.3-1.9c-0.8,1.4-2.8,1.8-4.2,1c-1.4-0.8-2-2.6-1.6-4.1c0.6-2.3,3-3.6,5.3-4.3c8.9-2.8,18.8-1,26.9,3.5
									c1.2,0.7,2.4,1.4,3.3,2.4c0.9,1,2.2,2.1,2.3,3.5"/>
							</g>
						</g>
					</g>
				</g>
			</g>
		</g>
		<g>
			<g>
				<g>
					<path class="st8" d="M315,95c0,0.1,0.6-0.1,1.5,0.2c0.4,0.2,0.9,0.5,1.3,0.9c0.5,0.4,0.9,0.9,1.5,1.4c0.5,0.5,1.2,1,1.8,1.1
						c0.7,0.2,1.3,0.2,1.8,0c1-0.3,1.4-0.8,1.3-0.9c-0.1-0.1-0.5,0.3-1.4,0.5c-0.4,0.1-1,0.1-1.5-0.1c-0.6-0.2-1.1-0.6-1.6-1.1
						c-0.5-0.5-1-1-1.5-1.4c-0.5-0.4-1-0.7-1.5-0.8C315.6,94.6,314.9,95,315,95z"/>
				</g>
			</g>
		</g>
		<g>
			<g>
				<g>
					<path class="st8" d="M316.1,97.8c0,0.1,0.5,0,1,0.5c0.3,0.2,0.5,0.5,0.8,0.9c0.3,0.4,0.7,0.8,1.2,1.1c1,0.6,2.2,0.7,2.9,0.6
						c0.8-0.1,1.2-0.4,1.1-0.5c0-0.1-0.5,0.1-1.2,0.1c-0.7,0-1.7-0.1-2.6-0.7c-0.9-0.5-1.4-1.5-2.1-1.9
						C316.6,97.5,316,97.7,316.1,97.8z"/>
				</g>
			</g>
		</g>
		<g>
			<g>
				<g>
					<path class="st8" d="M291.3,79.6c0,0-0.3-0.1-0.8,0.1c-0.5,0.2-1.2,0.6-1.8,1.4c-1.2,1.6-1.4,4.5-0.5,7.2
						c0.9,2.8,3,4.7,4.6,5.6c0.8,0.5,1.5,0.7,2.1,0.9c0.5,0.1,0.8,0.2,0.8,0.1c0-0.1-1.1-0.4-2.7-1.3c-1.5-1-3.4-2.8-4.3-5.5
						c-0.8-2.6-0.6-5.3,0.3-6.8c0.5-0.8,1.1-1.2,1.6-1.4C291.1,79.6,291.3,79.6,291.3,79.6z"/>
				</g>
			</g>
		</g>
		<g>
			<g>
				<g>
					<path class="st8" d="M283.6,83.5c-0.1,0-0.1,0.7,0.1,1.8c0.2,1.1,0.7,2.6,1.7,4c1,1.4,2.1,2.5,3.1,3.1c0.9,0.6,1.6,0.8,1.6,0.8
						c0.1-0.1-2.4-1.4-4.3-4.2C283.9,86.2,283.7,83.4,283.6,83.5z"/>
				</g>
			</g>
		</g>
	</g>
	<g>
		<g>
			<path class="st12" d="M231.9,214.1l-13.7,0.7c-1.7,0.1-3.1,1.5-3.1,3.3c0.1,3.1,0.6,7.4,3,7l1.6-6.8l11.4,10c1.2,1,2.6,1.7,4.1,2
				l2.7-0.3L231.9,214.1z"/>
		</g>
	</g>
	<g>
		<g>
			<g>
				<polygon class="st1" points="297.5,140.6 290.3,143 286.7,202.6 286.7,255.4 330.8,260.3 331.3,184.1 328.4,146.2 321.7,138.1 
									"/>
			</g>
		</g>
		<g>
			<g>
				<polygon class="st1" points="295.3,143.5 295.3,137.7 321.4,134.1 320.4,147.4 314.4,157.8 304.5,158.4 297.4,154 				"/>
			</g>
		</g>
		<g>
			<g>
				<g>
					<path class="st7" d="M297.6,142.8c-0.1,0-0.2-1.2-0.1-2.6c0.1-1.5,0.2-2.6,0.4-2.6c0.1,0,0.2,1.2,0.1,2.6
						C297.9,141.7,297.8,142.8,297.6,142.8z"/>
				</g>
			</g>
		</g>
		<g>
			<g>
				<g>
					<path class="st7" d="M304.2,142.3c-0.1,0-0.2-1.3-0.1-2.9c0.1-1.6,0.3-2.9,0.4-2.9c0.1,0,0.2,1.3,0.1,2.9
						C304.5,141.1,304.3,142.4,304.2,142.3z"/>
				</g>
			</g>
		</g>
		<g>
			<g>
				<g>
					<path class="st7" d="M310.5,141.7c-0.1,0-0.2-1.4,0-3.1c0.1-1.7,0.3-3.1,0.5-3.1c0.1,0,0.2,1.4,0,3.1
						C310.8,140.3,310.6,141.7,310.5,141.7z"/>
				</g>
			</g>
		</g>
		<g>
			<g>
				<g>
					<path class="st7" d="M316.6,140.7c-0.1,0-0.3-1.3-0.2-3c0.1-1.6,0.4-2.9,0.5-2.9c0.1,0,0.1,1.3,0,2.9
						C316.8,139.4,316.7,140.7,316.6,140.7z"/>
				</g>
			</g>
		</g>
		<g>
			<g>
				<g>
					<path class="st7" d="M313.7,165.9c0,0-0.1,0.4-0.3,1c-0.3,0.6-0.6,1.5-1.2,2.6c-1,2.2-2.5,5.1-4.4,8.2
						c-1.9,3.1-3.7,5.9-5.1,7.8c-0.7,1-1.3,1.7-1.7,2.2c-0.4,0.5-0.7,0.8-0.7,0.8c-0.1,0,0.8-1.3,2.1-3.2c1.3-2,3.1-4.7,5-7.8
						c1.8-3.1,3.4-6,4.5-8.1C312.9,167.1,313.6,165.8,313.7,165.9z"/>
				</g>
			</g>
		</g>
	</g>
	<g>
		<g>
			<g>
				<path class="st8" d="M321.6,137.2l7.1,3.4l13.7,3.4c6,1,10.2,6.6,9.4,12.7l-7.2,56l8.6,54.3l-34-1l-2-20.2v-56L321.6,137.2z"/>
			</g>
		</g>
		<g>
			<g>
				<g>
					<path class="st7" d="M317.2,202.7c0,0,0-0.2,0.1-0.7c0.1-0.5,0.2-1.2,0.4-2c0.4-1.8,0.9-4.2,1.5-7.2c1.3-6.1,3.2-14.5,5.2-23.8
						c0.6-2.6,1.1-5,1.6-7.4l0.1,0.2c-0.8-0.8-1.6-1.7-2.4-2.5l-0.1-0.1l0.1-0.2c1.4-2.3,2.7-4.5,4-6.6l0,0.2
						c-1.8-4.3-3.3-8-4.4-10.6c-0.5-1.2-0.9-2.2-1.2-3c-0.3-0.7-0.4-1.1-0.4-1.1c0,0,0.2,0.3,0.5,1c0.3,0.7,0.8,1.7,1.3,2.9
						c1.1,2.6,2.7,6.2,4.5,10.5l0,0.1l-0.1,0.1c-1.2,2-2.5,4.3-3.9,6.6l0-0.3c0.8,0.8,1.6,1.6,2.4,2.5l0.1,0.1l0,0.1
						c-0.5,2.4-1.1,4.9-1.6,7.4c-2.1,9.2-4,17.6-5.3,23.7c-0.7,3-1.3,5.4-1.7,7.2c-0.2,0.8-0.4,1.5-0.5,1.9
						C317.3,202.5,317.2,202.7,317.2,202.7z"/>
				</g>
			</g>
		</g>
	</g>
	<g>
		<g>
			<g>
				<path class="st8" d="M232.4,211.9l30.1-16.8l14.6-39.3c2-5.5,6.3-9.9,11.7-12.1l3.9-1.6l0,103.5l0.8,24.5l-16.3-4.9l8.3-49.3
					l-2.9-24.3l-2.9,11.7c-1,4.2-3.7,7.8-7.4,10L241,229.6L232.4,211.9z"/>
			</g>
		</g>
		<g>
			<g>
				<polygon class="st1" points="232.8,212.6 230.3,213.4 237.4,230.4 240.7,229.1 				"/>
			</g>
		</g>
		<g>
			<g>
				<g>
					<path class="st7" d="M268,202.1c-0.2,0-0.7-1.9-2.3-3.8c-1.6-1.9-3.4-2.8-3.3-2.9c0-0.1,2.1,0.6,3.7,2.6
						C267.8,199.9,268.1,202.1,268,202.1z"/>
				</g>
			</g>
		</g>
		<g>
			<g>
				<g>
					<path class="st7" d="M236,212.1c0,0.1-0.1,0.2-0.2,0.5c0,0.3,0.2,0.6,0.6,0.5c0.4-0.1,0.4-0.5,0.2-0.7
						c-0.2-0.2-0.4-0.3-0.4-0.3c0-0.1,0.3-0.2,0.7,0.1c0.2,0.1,0.4,0.4,0.3,0.7c0,0.4-0.3,0.7-0.7,0.8c-0.3,0.1-0.8,0-1-0.3
						c-0.2-0.3-0.2-0.6-0.1-0.8C235.7,212.1,236,212,236,212.1z"/>
				</g>
			</g>
		</g>
		<g>
			<g>
				<g>
					<path class="st7" d="M238.5,211.1c0,0.1-0.1,0.2-0.2,0.5c0,0.3,0.2,0.6,0.6,0.5c0.4-0.1,0.4-0.5,0.2-0.7
						c-0.2-0.2-0.4-0.3-0.4-0.3c0-0.1,0.3-0.2,0.7,0.1c0.2,0.1,0.4,0.4,0.3,0.7c0,0.4-0.3,0.7-0.7,0.8c-0.3,0.1-0.8,0-1-0.3
						c-0.2-0.3-0.2-0.6-0.1-0.8C238.1,211,238.5,211,238.5,211.1z"/>
				</g>
			</g>
		</g>
		<g>
			<g>
				<g>
					<path class="st7" d="M292.6,204.3c0,0-0.1-0.2-0.1-0.6c-0.1-0.5-0.2-1.1-0.3-1.8c-0.2-1.7-0.5-4-0.9-6.8
						c-0.7-5.8-1.7-13.7-2.8-22.4c-0.2-1.2-0.3-2.5-0.5-3.7l0-0.1l0-0.1c0.8-1.9,1.5-3.8,2.2-5.6l0,0.2c-0.8-1.7-1.5-3.4-2.2-5
						l0-0.1l0-0.1c1.3-4.8,2.5-8.9,3.3-11.8c0.4-1.4,0.7-2.5,1-3.3c0.2-0.8,0.4-1.2,0.4-1.2c0,0-0.1,0.4-0.2,1.2
						c-0.2,0.8-0.5,1.9-0.8,3.3c-0.8,2.9-1.8,7-3.1,11.8l0-0.2c0.7,1.6,1.4,3.2,2.2,4.9l0,0.1l0,0.1c-0.7,1.8-1.4,3.7-2.2,5.6l0-0.1
						c0.1,1.2,0.3,2.4,0.5,3.7c1.1,8.7,2,16.7,2.7,22.5c0.3,2.8,0.6,5.1,0.8,6.8c0.1,0.8,0.1,1.4,0.2,1.9
						C292.6,204.1,292.6,204.3,292.6,204.3z"/>
				</g>
			</g>
		</g>
		<g>
			<g>
				<g>
					<path class="st7" d="M285.4,216.2c0,0-0.1-0.2-0.1-0.5c-0.1-0.4-0.1-0.8-0.2-1.4c-0.2-1.3-0.4-3.1-0.6-5.2
						c-0.5-4.4-1.3-10.5-2.2-17.2c-0.9-6.7-1.8-12.8-2.4-17.1c-0.3-2.1-0.6-3.9-0.8-5.2c-0.1-0.6-0.1-1-0.2-1.4c0-0.3,0-0.5,0-0.5
						c0,0,0.1,0.2,0.1,0.5c0.1,0.4,0.2,0.8,0.3,1.4c0.2,1.2,0.5,3,0.9,5.2c0.7,4.4,1.7,10.4,2.6,17.1c0.9,6.7,1.6,12.8,2,17.2
						c0.2,2.2,0.4,4,0.5,5.2c0,0.6,0.1,1,0.1,1.4C285.4,216,285.4,216.2,285.4,216.2z"/>
				</g>
			</g>
		</g>
		<g>
			<g>
				<g>
					<path class="st7" d="M281.2,253c0,0,0.2,0.4,0.7,0.8c0.5,0.4,1.5,0.9,2.7,0.6c1.2-0.3,2.4-1.4,3-2.9c0.6-1.5,0.7-3.4,0.8-5.4
						c0.1-1.9,0.1-3.8-0.6-5.4c-0.6-1.5-1.8-2.6-2.7-3.4c-1-0.9-1.7-1.6-2.1-2.3c-0.4-0.6-0.5-1-0.5-1c0,0,0.2,0.3,0.7,0.9
						c0.4,0.6,1.2,1.3,2.2,2.1c1,0.8,2.2,1.9,2.9,3.5c0.7,1.6,0.8,3.6,0.6,5.6c-0.1,2-0.2,3.9-0.9,5.5c-0.7,1.6-2,2.8-3.3,3.1
						c-1.4,0.3-2.5-0.3-3-0.8c-0.3-0.3-0.4-0.5-0.5-0.7C281.2,253.1,281.2,253,281.2,253z"/>
				</g>
			</g>
		</g>
		<g>
			<g>
				<path class="st7" d="M270.1,214.1c0,0,1-11.5,10.1-12.5C280.1,201.6,280.3,211,270.1,214.1z"/>
			</g>
		</g>
	</g>
	<g>
		<g>
			<path class="st9" d="M318.7,257.1c0.6,0.4,26.4,17.3,26.4,17.3l3-2.4l1.4-38.8l-25.2-19.1l-3.5,1.2L318.7,257.1z"/>
		</g>
	</g>
	<g>
		<g>
			<polygon class="st1" points="324.1,214.7 325.1,256.7 319.6,256.7 321.5,215.5 			"/>
		</g>
	</g>
	<g>
		<g>
			<path class="st12" d="M332.4,266.3c0,0,0.6,1.9,3,2c0.1,0,0.1,0.1,0.2,0.2c0.5,0.9,1.5,1.6,2.5,1.6c0.8,0,1.8-0.2,2.8-0.8
				c1.4-0.8,3.8-6.4,3.8-6.4l5.8-13l-9.8-2.7l-12.5,3.9c0,0.2-2.9,12-2.9,12s2.4,0.7,3.5-1.9c1.1-2.5,2.2-4.1,2.2-4.1l0.9,5.3
				l-3.5,1.2c0,0-0.4,2,1.5,2.7L332.4,266.3z"/>
		</g>
	</g>
	<g>
		<g>
			<path class="st8" d="M336.8,175.1l16.3,30.1l-13.3,39.5l14.8,8.3l18.8-43.9c1.4-3.3,1.3-6.9-0.2-10.2l-23-49.5L336.8,175.1z"/>
		</g>
	</g>
	<g>
		<g>
			<polygon class="st1" points="339.9,244.6 338.5,247.6 352.4,255.1 353.9,252.5 			"/>
		</g>
	</g>
	<g>
		<g>
			<g>
				<path class="st7" d="M339.9,244.6c0,0,0-0.1,0-0.2c0-0.2,0.1-0.3,0.2-0.6c0.2-0.5,0.4-1.3,0.7-2.2c0.6-2,1.6-4.8,2.7-8.3
					c2.4-7.1,5.6-16.9,9.4-28.2l0,0.2c-1.9-3.2-3.9-6.6-5.8-10.2c-3.6-6.4-6.9-12.6-9.7-18.4c-1.4-2.9-2.7-5.6-3.8-8.2
					c-1.2-2.6-1.5-5.4-1.4-7.8c0.2-2.4,0.6-4.6,1.5-6.4c0.8-1.8,1.9-3.1,2.9-4c1-0.9,2-1.4,2.6-1.7c0.7-0.3,1-0.4,1-0.4
					c0.1,0.1-1.5,0.4-3.5,2.2c-1,0.9-2,2.2-2.8,4c-0.8,1.7-1.2,3.9-1.4,6.3c-0.1,2.4,0.2,5,1.4,7.6c1.1,2.6,2.4,5.3,3.8,8.2
					c2.8,5.7,6.2,11.9,9.8,18.3c2,3.5,3.9,6.9,5.8,10.2l0.1,0.1l0,0.1c-3.8,11.3-7.2,21.1-9.6,28.2c-1.2,3.5-2.2,6.3-2.9,8.2
					c-0.3,0.9-0.6,1.7-0.8,2.2c-0.1,0.2-0.2,0.4-0.2,0.6C339.9,244.5,339.9,244.6,339.9,244.6z"/>
			</g>
		</g>
	</g>
	<g>
		<g>
			<g>
				<path class="st7" d="M364.2,204.8c0,0.1-0.6-0.2-1.6-0.6c-1-0.3-2.4-0.6-4-0.6c-1.6,0.1-3,0.4-3.9,0.8c-1,0.4-1.5,0.7-1.6,0.7
					c0,0,0.5-0.5,1.4-1c1-0.5,2.4-1,4.1-1c1.7,0,3.1,0.3,4.1,0.8C363.7,204.4,364.2,204.8,364.2,204.8z"/>
			</g>
		</g>
	</g>
	<g>
		<g>
			<polygon class="st7" points="333.6,167.9 345.3,207.2 347,194.3 			"/>
		</g>
	</g>
	<g>
		<g>
			<g>
				<path class="st7" d="M353,245c0,0.1-0.1,0.2-0.2,0.5c0,0.3,0.2,0.6,0.6,0.5c0.4-0.1,0.4-0.5,0.2-0.7c-0.2-0.2-0.4-0.3-0.4-0.3
					c0-0.1,0.3-0.2,0.7,0.1c0.2,0.1,0.4,0.4,0.3,0.7c0,0.4-0.3,0.7-0.7,0.8c-0.3,0.1-0.8,0-1-0.3c-0.2-0.3-0.2-0.6-0.1-0.8
					C352.6,245,353,245,353,245z"/>
			</g>
		</g>
	</g>
	<g>
		<g>
			<g>
				<path class="st7" d="M354.1,242.2c0,0.1-0.1,0.2-0.2,0.5c0,0.3,0.2,0.6,0.6,0.5c0.4-0.1,0.4-0.5,0.2-0.7
					c-0.2-0.2-0.4-0.3-0.4-0.3c0-0.1,0.3-0.2,0.7,0.1c0.2,0.1,0.4,0.4,0.3,0.7c0,0.4-0.3,0.7-0.7,0.8c-0.3,0.1-0.8,0-1-0.3
					c-0.2-0.3-0.2-0.6-0.1-0.8C353.8,242.2,354.1,242.2,354.1,242.2z"/>
			</g>
		</g>
	</g>
	<g>
		<g>
			<path class="st7" d="M370.2,192.2c-1.7,0.9-2.4,3.5-2.2,5.5c0.2,2,0.9,3.9,0.9,5.9c0,1.4-0.5,2.8-0.7,4.2
				c-0.3,1.4-0.4,2.9,0.1,4.2c0.5,1.3,1.9,2.4,3.3,2.1l1.4-2.8c2.2-4.4,2.1-9.7-0.2-14.1L370.2,192.2z"/>
		</g>
	</g>
</g>
<g id="Plants">
	<g>
		<g>
			<g>
				<g>
					<path class="st17" d="M455.8,403.3c0.9-3.1,2.8-6.1,5.8-7.4c3.1-1.3,6.7-0.6,9.9,0.6c3.2,1.2,6.3,2.7,9.7,2.9
						c3.4,0.2,7.2-1.4,8.2-4.6c0.9-3-0.9-6.3-3.2-8.5c-4.8-4.6-12-6.6-18.5-5c-6.5,1.6-12,6.6-14.2,12.9"/>
				</g>
			</g>
		</g>
	</g>
	<g>
		<g>
			<g>
				<g>
					<g>
						<path class="st13" d="M455.8,403.3c0.9-3.1,2.8-6.1,5.8-7.4c3.1-1.3,6.7-0.6,9.9,0.6c3.2,1.2,6.3,2.7,9.7,2.9
							c3.4,0.2,7.2-1.4,8.2-4.6c0.9-3-0.9-6.3-3.2-8.5c-4.8-4.6-12-6.6-18.5-5c-6.5,1.6-12,6.6-14.2,12.9"/>
					</g>
				</g>
			</g>
		</g>
	</g>
	<g>
		<g>
			<g>
				<g>
					<path class="st9" d="M429.1,416.8c-4.9-4.7-4.7-12.9-2.2-19.2c2.5-6.4,7.8-11.2,13.9-14.4c11.6-6.2,26.2-6.7,38.2-1.2
						c-5.9,0.2-11.6,3.6-14.7,8.6c-2.7,4.5-3.3,10-5.5,14.7c-2.5,5.3-7.1,9.6-12.5,11.7C440.8,419.1,434.5,419,429.1,416.8
						L429.1,416.8z"/>
				</g>
			</g>
		</g>
	</g>
	<g>
		<g>
			<g>
				<g>
					<path class="st9" d="M426.7,388.6c-5.5-6.5-6.2-16.8-5.4-25.2c0.8-8.4,2.8-16.9,1.4-25.3c-0.8-5-2.7-9.7-3.4-14.7
						c-0.6-5,0.3-10.6,4.1-13.8c4.4-3.7,11.4-2.8,16,0.6c4.6,3.5,7.3,8.9,9.2,14.3c4.3,11.9,5.9,25.1,2.3,37.3
						c-3.5,12.2-11.8,23-23.9,26.7H426.7z"/>
				</g>
			</g>
		</g>
	</g>
	<g>
		<g>
			<g>
				<g>
					<g>
						<path class="st7" d="M424.1,441.6c0,0,0-0.3,0-0.7c0-0.5,0-1.2,0-2.1c0.1-1.9,0.2-4.5,0.7-7.8c0.4-3.3,1.1-7.2,2.1-11.5
							c1-4.3,2.8-8.8,5.2-13.3c2.5-4.4,5.5-8.3,8.5-11.4c3.1-3.2,6.2-5.6,9-7.4c1.4-0.9,2.7-1.7,3.8-2.3c1.2-0.6,2.2-1.1,3-1.5
							c0.8-0.3,1.5-0.6,2-0.8c0.5-0.2,0.7-0.3,0.7-0.3c0,0-0.2,0.1-0.7,0.3c-0.5,0.2-1.1,0.5-1.9,0.9c-0.8,0.4-1.8,0.9-3,1.6
							c-1.1,0.7-2.4,1.4-3.8,2.4c-2.7,1.9-5.8,4.3-8.8,7.5c-3,3.1-6,7-8.4,11.3c-5,8.8-6.4,18-7.4,24.5c-0.5,3.3-0.7,5.9-0.8,7.8
							c-0.1,0.9-0.1,1.6-0.1,2.1C424.2,441.4,424.1,441.6,424.1,441.6z"/>
					</g>
				</g>
			</g>
		</g>
	</g>
	<g>
		<g>
			<g>
				<g>
					<path class="st17" d="M376.9,363.2c-10.1,6.1-10.1,11.7-8.4,16.9c1.7,5.2,7.9,8.9,13.1,6.9c2.9-1.1,5-3.6,6.8-6.2
						c1.8-2.5,3.5-5.3,6-7.1c2.5-1.8,6.2-2.5,8.7-0.7"/>
				</g>
			</g>
		</g>
	</g>
	<g>
		<g>
			<g>
				<g>
					<g>
						<path class="st13" d="M376.9,363.2c-10.1,6.1-10.1,11.7-8.4,16.9c1.7,5.2,7.9,8.9,13.1,6.9c2.9-1.1,5-3.6,6.8-6.2
							c1.8-2.5,3.5-5.3,6-7.1c2.5-1.8,6.2-2.5,8.7-0.7"/>
					</g>
				</g>
			</g>
		</g>
	</g>
	<g>
		<g>
			<g>
				<g>
					<path class="st9" d="M369.4,369.9c2.6-3.7,9.2-4.7,13.3-2.9c4.1,1.8,7.2,5.4,9.9,9.1c2.7,3.6,5.3,7.4,9.1,9.9
						c3.7,2.5,9,3.4,12.7,0.9c2.5-1.7,3.9-4.6,4.3-7.5c0.4-2.9,0-5.9-0.6-8.8c-0.9-4.2-2.4-8.7-5.7-11.4c-3.8-3-9-3.1-13.9-3
						c-5.5,0.2-11.2,0.6-16.4,2.5C376.9,360.6,371.6,364.8,369.4,369.9L369.4,369.9z"/>
				</g>
			</g>
		</g>
	</g>
	<g>
		<g>
			<g>
				<g>
					<g>
						<path class="st7" d="M415.7,433.5c0,0,0-0.1,0-0.2c0-0.2,0-0.4,0-0.7c0-0.6-0.1-1.4-0.1-2.5c-0.1-2.2-0.2-5.4-0.3-9.2
							c-0.1-3.9-0.3-8.5-0.6-13.7c-0.3-5.1-0.7-10.8-1.5-16.7c-0.4-2.9-0.9-5.8-1.7-8.5c-0.8-2.7-1.9-5.1-3.1-7.4
							c-1.2-2.3-2.5-4.3-3.9-6.1c-1.4-1.8-2.9-3.4-4.3-4.7c-2.9-2.6-5.6-4.2-7.6-5.2c-0.5-0.2-0.9-0.4-1.3-0.6
							c-0.4-0.1-0.7-0.3-1-0.4c-0.2-0.1-0.4-0.2-0.6-0.2c-0.1-0.1-0.2-0.1-0.2-0.1c0,0,0.1,0,0.2,0.1c0.2,0.1,0.4,0.1,0.6,0.2
							c0.3,0.1,0.6,0.2,1,0.3c0.4,0.1,0.8,0.4,1.3,0.6c2,0.9,4.8,2.5,7.7,5.1c1.4,1.3,2.9,2.9,4.4,4.7c1.4,1.8,2.8,3.9,4,6.2
							c1.2,2.3,2.3,4.8,3.2,7.5c0.8,2.7,1.3,5.6,1.7,8.6c0.8,5.9,1.2,11.6,1.4,16.7c0.3,5.2,0.4,9.8,0.5,13.7
							c0.1,3.9,0.1,7.1,0.1,9.2c0,1.1,0,1.9,0,2.5c0,0.3,0,0.5,0,0.7C415.7,433.4,415.7,433.5,415.7,433.5z"/>
					</g>
				</g>
			</g>
		</g>
	</g>
	<g>
		<g>
			<g>
				<g>
					<g>
						<path class="st7" d="M419.3,438.1c0,0-0.6-1.5-1.1-4.3c-0.5-2.8-0.9-7-0.5-12.2c0.4-5.2,1.8-11.2,3.9-17.7
							c2.1-6.5,4.9-13.5,7.3-21c1.2-3.7,2.2-7.5,2.9-11.1c0.7-3.6,1.2-7.2,1.4-10.6c0.6-6.8,0.5-12.9,0.3-18.1
							c-0.2-5.2-0.4-9.3-0.6-12.2c-0.1-1.4-0.1-2.5-0.2-3.3c0-0.4,0-0.6,0-0.9c0-0.2,0-0.3,0-0.3c0,0,0,0.1,0,0.3
							c0,0.2,0,0.5,0.1,0.9c0.1,0.8,0.2,1.9,0.3,3.3c0.2,2.9,0.5,7,0.8,12.2c0.2,5.2,0.3,11.3-0.2,18.1c-0.3,3.4-0.7,7-1.4,10.6
							c-0.7,3.7-1.7,7.4-2.9,11.1c-2.4,7.5-5.2,14.5-7.3,21c-2.1,6.5-3.5,12.5-3.9,17.6c-0.5,5.1-0.2,9.3,0.3,12.2
							c0.2,1.4,0.5,2.5,0.7,3.2c0.1,0.4,0.2,0.6,0.2,0.8C419.3,438,419.4,438.1,419.3,438.1z"/>
					</g>
				</g>
			</g>
		</g>
	</g>
	<g>
		<g>
			<g>
				<g>
					<polygon class="st8" points="444.4,442.7 396.9,442.7 395.8,433.5 444.4,433.5 					"/>
				</g>
			</g>
		</g>
	</g>
	<g>
		<g>
			<g>
				<g>
					<polygon class="st8" points="402,441.6 408,469.1 433.8,469.1 439.3,441.6 					"/>
				</g>
			</g>
		</g>
	</g>
	<g>
		<g>
			<g>
				<g>
					<g>
						<path class="st8" d="M444.4,442.7c0,0.1-10.4,0.2-23.3,0.2c-12.9,0-23.3-0.2-23.3-0.3c0-0.1,10.4-0.2,23.3-0.2
							C434,442.4,444.4,442.5,444.4,442.7z"/>
					</g>
				</g>
			</g>
		</g>
	</g>
	<g>
		<g>
			<g>
				<g>
					<g>
						<path class="st7" d="M436.3,456.2c-0.1,0.1-1.4-1.3-4.2-2.4c-1.4-0.5-3.1-1-5.1-1c-2-0.1-4.1,0.4-6.3,1.1
							c-2.2,0.7-4.2,1.6-6.2,2.1c-2,0.4-3.8,0.4-5.3,0.2c-1.5-0.2-2.7-0.7-3.4-1.1c-0.4-0.2-0.7-0.4-0.8-0.5
							c-0.2-0.1-0.3-0.2-0.3-0.2c0,0,0.4,0.2,1.2,0.6c0.8,0.3,1.9,0.7,3.4,0.9c1.5,0.2,3.3,0.2,5.2-0.3c1.9-0.5,3.9-1.3,6.1-2.1
							c2.2-0.8,4.4-1.2,6.4-1.1c2,0.1,3.8,0.5,5.2,1.1c1.4,0.6,2.4,1.3,3.1,1.8c0.3,0.3,0.6,0.5,0.7,0.6
							C436.2,456.1,436.3,456.2,436.3,456.2z"/>
					</g>
				</g>
			</g>
		</g>
	</g>
	<g>
		<g>
			<g>
				<g>
					<g>
						<path class="st2" d="M435.9,458c-0.1,0.1-1.4-1.2-4-2.4c-1.3-0.5-3-1-4.9-1c-1.9-0.1-4,0.4-6.1,1.1c-2.1,0.7-4.1,1.5-5.9,2
							c-1.9,0.5-3.6,0.7-5.1,0.6c-1.5-0.1-2.6-0.5-3.4-0.9c-0.4-0.2-0.6-0.4-0.8-0.5c-0.2-0.1-0.3-0.2-0.2-0.2c0,0,0.4,0.2,1.1,0.6
							c0.7,0.3,1.9,0.7,3.3,0.7c1.4,0.1,3.2-0.1,5-0.7c1.8-0.5,3.8-1.3,5.9-2c2.1-0.7,4.2-1.2,6.2-1.1c2,0.1,3.7,0.5,5,1.1
							c1.4,0.6,2.3,1.3,3,1.8c0.3,0.3,0.6,0.5,0.7,0.6C435.9,457.9,435.9,458,435.9,458z"/>
					</g>
				</g>
			</g>
		</g>
	</g>
	<g>
		<g>
			<g>
				<g>
					<g>
						<path class="st2" d="M436.8,454.4c-0.1,0.1-1.5-1.3-4.3-2.5c-1.4-0.6-3.2-1.1-5.2-1.3c-2-0.1-4.2,0.4-6.5,1.1
							c-2.2,0.8-4.3,1.7-6.4,2.1c-2.1,0.4-4,0.3-5.5,0c-1.5-0.3-2.8-0.7-3.5-1.1c-0.4-0.2-0.7-0.4-0.9-0.5c-0.2-0.1-0.3-0.2-0.3-0.2
							c0,0,0.4,0.2,1.2,0.6c0.8,0.4,2,0.7,3.5,1c1.5,0.2,3.4,0.3,5.4-0.1c2-0.4,4.1-1.3,6.3-2.1c2.2-0.8,4.5-1.3,6.6-1.1
							c2.1,0.1,3.9,0.7,5.3,1.4c1.4,0.6,2.5,1.4,3.2,1.9c0.3,0.3,0.6,0.5,0.8,0.7C436.7,454.3,436.8,454.4,436.8,454.4z"/>
					</g>
				</g>
			</g>
		</g>
	</g>
	<g>
		<g>
			<g>
				<g>
					<g>
						<path class="st7" d="M444.9,442.7c0,0.1-10.7,0.2-23.9,0.2c-13.2,0-23.9-0.1-23.9-0.2s10.7-0.2,23.9-0.2
							C434.2,442.5,444.9,442.6,444.9,442.7z"/>
					</g>
				</g>
			</g>
		</g>
	</g>
	<g>
		<g>
			<g>
				<path class="st17" d="M81.7,432.3c1.7,2.4,5,1.6,6.6,0.1s2.2-3.6,2.8-5.7c1.4-4.7,2.7-9.6,1.7-14.4c-0.3-1.4-0.8-2.9-1.8-3.9
					c-1-1.1-2.6-1.7-4-1.3c-1.7,0.4-2.7,2.1-3.5,3.6c-2.2,4.6-3.4,9.7-3.4,14.8C80.1,427.8,80.4,430.3,81.7,432.3"/>
			</g>
		</g>
	</g>
	<g>
		<g>
			<g>
				<path class="st9" d="M81.7,432.3c1.7,2.4,5,1.6,6.6,0.1s2.2-3.6,2.8-5.7c1.4-4.7,2.7-9.6,1.7-14.4c-0.3-1.4-0.8-2.9-1.8-3.9
					c-1-1.1-2.6-1.7-4-1.3c-1.7,0.4-2.7,2.1-3.5,3.6c-2.2,4.6-3.4,9.7-3.4,14.8C80.1,427.8,80.4,430.3,81.7,432.3"/>
			</g>
		</g>
	</g>
	<g>
		<g>
			<g>
				<path class="st9" d="M88.1,444.6c2.8-1.4,6.1-1.6,9.2-1.1c1.7,0.3,3.4,0.8,4.5,2c1.1,1.3,1.3,3.5,0,4.5
					c-0.8,0.6-1.9,0.7-2.9,0.7c-2.4,0-5.1-0.5-7.1,1c-1.1,0.8-1.8,2.2-3.2,2.6c-1.3,0.4-2.8-0.4-3.4-1.5c-0.7-1.2-0.7-2.6-0.4-3.9
					C85,448.9,85.3,446.1,88.1,444.6z"/>
			</g>
		</g>
	</g>
	<g>
		<g>
			<g>
				<path class="st9" d="M77,435.8c1.9-2.2,2.2-5.4,1.4-8.2c-0.8-2.8-2.7-5.1-4.8-7c-2.5-2.2-5.5-4-8.7-5.1
					c-1.3-0.4-2.6-0.8-3.9-0.7c-1.3,0.1-2.7,0.8-3.3,2c-0.9,1.7,0,3.9,0.9,5.6c1.7,3,3.6,5.9,5.7,8.7c1.7,2.2,3.7,4.4,6.3,5.4
					c2.6,1,5.3,0.9,6.7-0.9"/>
			</g>
		</g>
	</g>
	<g>
		<g>
			<g>
				<g>
					<path class="st7" d="M81.6,469.1c0,0,0.1-0.4,0.2-1.1c0.1-0.8,0.2-1.8,0.3-3c0.1-1.3,0.3-2.8,0.7-4.4c0.4-1.6,0.9-3.4,1.6-5.2
						c0.7-1.8,1.6-3.4,2.7-4.7c1-1.3,2.2-2.3,3.4-2.8c1.1-0.6,2.1-0.8,2.8-0.9c0.7-0.1,1.1-0.1,1.1-0.2c0,0-0.4,0-1.1,0
						c-0.7,0-1.8,0.2-3,0.8c-1.2,0.5-2.5,1.5-3.6,2.8c-1.1,1.3-2,3-2.8,4.8c-0.7,1.8-1.3,3.6-1.6,5.3c-0.3,1.7-0.5,3.2-0.6,4.5
						c-0.1,1.3-0.1,2.3-0.2,3C81.6,468.7,81.6,469.1,81.6,469.1z"/>
				</g>
			</g>
		</g>
	</g>
	<g>
		<g>
			<g>
				<g>
					<path class="st7" d="M81.8,466.7c0,0,0-0.2,0-0.5c0-0.4,0-0.9,0-1.5c0-1.3,0-3.1,0.1-5.4c0.1-4.6,0.5-10.9,1.3-17.8
						c0.8-6.9,1.8-13.2,2.7-17.6c0.2-1.1,0.4-2.1,0.6-3c0.2-0.9,0.4-1.6,0.5-2.3c0.1-0.6,0.3-1.1,0.3-1.4c0.1-0.3,0.1-0.5,0.1-0.5
						c0,0-0.1,0.2-0.2,0.5c-0.1,0.4-0.3,0.8-0.4,1.4c-0.2,0.6-0.4,1.4-0.6,2.3c-0.2,0.9-0.5,1.9-0.7,3c-1,4.5-2.1,10.7-2.8,17.6
						c-0.8,6.9-1.1,13.3-1.1,17.8c0,2.3,0,4.1,0.1,5.4c0,0.6,0.1,1.1,0.1,1.5C81.8,466.6,81.8,466.7,81.8,466.7z"/>
				</g>
			</g>
		</g>
	</g>
	<g>
		<g>
			<g>
				<g>
					<path class="st7" d="M81.8,454.6c0,0,0-0.5,0-1.5c-0.1-1-0.2-2.4-0.5-4.2c-0.3-1.7-0.7-3.8-1.4-6.1c-0.6-2.3-1.5-4.7-2.5-7.2
						c-2.1-5-5-9.1-7.5-11.6c-0.6-0.7-1.2-1.2-1.8-1.6c-0.3-0.2-0.5-0.5-0.7-0.6c-0.2-0.2-0.5-0.3-0.7-0.5c-0.8-0.6-1.3-0.9-1.3-0.8
						c-0.1,0.1,1.8,1.2,4.2,3.8c2.4,2.6,5.2,6.6,7.3,11.6c1.1,2.5,1.9,4.9,2.6,7.1c0.7,2.2,1.1,4.3,1.4,6c0.3,1.7,0.5,3.1,0.6,4.1
						C81.7,454,81.8,454.6,81.8,454.6z"/>
				</g>
			</g>
		</g>
	</g>
</g>
<g id="Speech_Bubble">
	<g>
		<g>
			<g>
				<g>
					<g>
						<path class="st9" d="M229.3,50.4c0,0,0.2,0,0.5,0c0.4,0,0.9,0,1.5,0c0.7,0,1.5,0.1,2.4,0.2c0.5,0.1,1,0.1,1.5,0.2
							c0.5,0.1,1.1,0.3,1.7,0.4c2.4,0.7,5.3,1.7,8.3,3.7c3,2,6,4.8,8.4,8.6c2.4,3.8,4.2,8.6,4.4,13.9c0.3,5.3-0.9,11.1-3.9,16.2
							c-3,5.2-7.9,9.6-13.9,12.1c-3,1.3-6.3,2-9.6,2.1c-3.4,0.2-6.8-0.2-10.1-1.3l-0.3-0.1l0.2,0c-5.8,2-11.4,4-16.9,5.8l-0.7,0.2
							l0.2-0.7c1.5-4.8,3-9.5,4.4-14l0.1,0.3c-3.2-3.6-5.4-7.9-6.5-12.3c-1.1-4.4-1-8.7-0.3-12.7c0.8-4,2.4-7.5,4.3-10.4
							c2-2.9,4.3-5.2,6.7-7c1.1-0.9,2.4-1.6,3.5-2.3c1.2-0.6,2.3-1.2,3.4-1.5c1.1-0.4,2.1-0.8,3-1c0.9-0.2,1.8-0.5,2.6-0.5
							c0.8-0.1,1.5-0.2,2.1-0.3c0.6,0,1.1,0,1.5,0c0.4,0,0.7,0,0.9,0C229.2,50.4,229.3,50.4,229.3,50.4c0,0-0.1,0-0.3,0
							c-0.2,0-0.5,0-0.9,0.1c-0.4,0-0.9,0.1-1.5,0.1c-0.6,0.1-1.3,0.2-2.1,0.3c-0.8,0.1-1.6,0.3-2.6,0.6c-0.9,0.2-1.9,0.6-3,1
							c-1.1,0.4-2.1,1-3.3,1.5c-1.1,0.7-2.3,1.4-3.4,2.3c-2.3,1.8-4.6,4-6.5,6.9c-1.9,2.9-3.4,6.3-4.2,10.2
							c-0.7,3.9-0.8,8.1,0.3,12.4c1.1,4.2,3.2,8.4,6.4,12l0.1,0.1l-0.1,0.2c-1.4,4.5-2.8,9.2-4.3,14l-0.5-0.5
							c5.4-1.9,11.1-3.8,16.8-5.8l0.1,0l0.1,0l0.3,0.1c3.2,1,6.6,1.5,9.8,1.2c3.3-0.2,6.5-0.8,9.4-2.1c5.8-2.5,10.7-6.7,13.6-11.8
							c3-5,4.2-10.7,3.9-15.8c-0.2-5.2-1.9-9.9-4.3-13.6c-2.3-3.8-5.3-6.6-8.2-8.6c-2.9-2-5.8-3.1-8.2-3.8c-0.6-0.2-1.2-0.3-1.7-0.5
							c-0.5-0.1-1-0.2-1.5-0.3c-0.9-0.2-1.7-0.3-2.4-0.3c-0.6,0-1.1-0.1-1.5-0.1C229.5,50.4,229.3,50.4,229.3,50.4z"/>
					</g>
				</g>
			</g>
		</g>
		<g>
			<g>
				<g>
					<g>
						<polygon class="st9" points="212.3,81.1 216.8,76.7 225.3,84.3 242.1,68.2 246.2,72.6 224.7,92.9 						"/>
					</g>
				</g>
			</g>
		</g>
	</g>
</g>
</svg>
